<svg width="1503" height="759" viewBox="0 0 1503 759" fill="none" xmlns="http://www.w3.org/2000/svg">
<rect width="1440" height="758" fill="#F4F4F4"/>
<rect width="1440" height="759" fill="url(#paint0_linear_1550_133)"/>
<path d="M97.1703 216H91.3223V169.76H97.1703V189.956H105.874L119.338 169.76H126.342L110.702 192.336L126.954 216H119.678L105.738 195.26H97.1703V216ZM161.108 199.748C161.108 205.007 159.748 209.155 157.028 212.192C154.308 215.184 150.59 216.68 145.876 216.68C141.116 216.68 137.33 215.161 134.52 212.124C131.709 209.087 130.304 204.961 130.304 199.748C130.304 194.489 131.686 190.387 134.452 187.44C137.262 184.448 141.07 182.952 145.876 182.952C150.636 182.952 154.353 184.448 157.028 187.44C159.748 190.387 161.108 194.489 161.108 199.748ZM135.744 199.748C135.744 203.465 136.65 206.412 138.464 208.588C140.277 210.764 142.748 211.852 145.876 211.852C149.004 211.852 151.406 210.809 153.084 208.724C154.806 206.593 155.668 203.601 155.668 199.748C155.668 195.895 154.829 192.948 153.152 190.908C151.474 188.823 149.049 187.78 145.876 187.78C142.657 187.78 140.164 188.823 138.396 190.908C136.628 192.993 135.744 195.94 135.744 199.748ZM174.77 216H169.33V183.632H190.818V188.664H174.77V216ZM203.06 216H197.62V183.632H203.06V196.892H220.332V183.632H225.772V216H220.332V201.924H203.06V216ZM258.238 190.5L241.85 216H236.002V183.632H241.238V208.996L257.49 183.632H263.474V216H258.238V190.5ZM282.155 188.664H270.255V183.632H299.495V188.664H287.595V216H282.155V188.664ZM328.563 190.5L312.175 216H306.327V183.632H311.563V208.996L327.815 183.632H333.799V216H328.563V190.5ZM358.939 216H343.979V183.632H357.987C361.614 183.632 364.356 184.357 366.215 185.808C368.119 187.213 369.071 189.321 369.071 192.132C369.071 193.991 368.663 195.555 367.847 196.824C367.076 198.093 365.943 198.932 364.447 199.34C366.17 199.703 367.507 200.564 368.459 201.924C369.456 203.239 369.955 204.871 369.955 206.82C369.955 209.812 369.026 212.101 367.167 213.688C365.308 215.229 362.566 216 358.939 216ZM363.971 192.744C363.971 191.203 363.495 190.069 362.543 189.344C361.591 188.619 360.14 188.256 358.191 188.256H349.283V197.368H358.599C360.412 197.368 361.75 196.983 362.611 196.212C363.518 195.441 363.971 194.285 363.971 192.744ZM364.787 206.616C364.787 204.984 364.288 203.783 363.291 203.012C362.339 202.196 360.888 201.788 358.939 201.788H349.283V211.376H359.007C360.956 211.376 362.407 210.991 363.359 210.22C364.311 209.404 364.787 208.203 364.787 206.616ZM383.552 216H378.112V183.632H383.552V196.892H400.824V183.632H406.264V216H400.824V201.924H383.552V216ZM452.059 216H446.619V183.632H452.059V216ZM430.231 216H416.495V183.632H421.935V194.784H430.367C434.084 194.784 436.917 195.668 438.867 197.436C440.816 199.159 441.791 201.697 441.791 205.052C441.791 208.633 440.816 211.353 438.867 213.212C436.917 215.071 434.039 216 430.231 216ZM436.623 205.12C436.623 203.125 436.124 201.72 435.127 200.904C434.175 200.088 432.588 199.68 430.367 199.68H421.935V211.104H430.299C432.475 211.104 434.061 210.628 435.059 209.676C436.101 208.724 436.623 207.205 436.623 205.12ZM489.788 198.116C489.788 199.068 489.788 199.725 489.788 200.088C489.788 200.451 489.766 200.745 489.72 200.972H465.512C465.694 204.508 466.6 207.228 468.232 209.132C469.91 211.036 472.199 211.988 475.1 211.988C477.322 211.988 479.203 211.467 480.744 210.424C482.331 209.336 483.464 207.84 484.144 205.936L488.972 206.956C488.247 209.948 486.638 212.328 484.144 214.096C481.696 215.819 478.682 216.68 475.1 216.68C470.522 216.68 466.895 215.207 464.22 212.26C461.591 209.268 460.276 205.12 460.276 199.816C460.276 194.603 461.659 190.5 464.424 187.508C467.235 184.471 470.952 182.952 475.576 182.952C479.928 182.952 483.374 184.312 485.912 187.032C488.496 189.752 489.788 193.447 489.788 198.116ZM475.576 187.576C472.856 187.576 470.635 188.369 468.912 189.956C467.19 191.497 466.124 193.741 465.716 196.688H484.62C484.53 193.923 483.668 191.724 482.036 190.092C480.45 188.415 478.296 187.576 475.576 187.576ZM99.0063 248.664H87.1063V243.632H116.346V248.664H104.446V276H99.0063V248.664ZM128.618 289.192H123.178V243.632H128.618V248.256C129.706 246.579 131.225 245.287 133.174 244.38C135.169 243.428 137.345 242.952 139.702 242.952C144.009 242.952 147.477 244.448 150.106 247.44C152.781 250.432 154.118 254.444 154.118 259.476C154.118 264.78 152.735 268.973 149.97 272.056C147.25 275.139 143.555 276.68 138.886 276.68C136.755 276.68 134.806 276.317 133.038 275.592C131.27 274.867 129.797 273.824 128.618 272.464V289.192ZM128.618 258.592V262.468C128.618 265.233 129.593 267.5 131.542 269.268C133.491 270.991 135.939 271.852 138.886 271.852C141.878 271.852 144.258 270.741 146.026 268.52C147.794 266.299 148.678 263.352 148.678 259.68C148.678 256.053 147.771 253.175 145.958 251.044C144.19 248.868 141.787 247.78 138.75 247.78C135.894 247.78 133.491 248.8 131.542 250.84C129.593 252.835 128.618 255.419 128.618 258.592ZM189.898 258.116C189.898 259.068 189.898 259.725 189.898 260.088C189.898 260.451 189.875 260.745 189.83 260.972H165.622C165.803 264.508 166.71 267.228 168.342 269.132C170.019 271.036 172.308 271.988 175.21 271.988C177.431 271.988 179.312 271.467 180.854 270.424C182.44 269.336 183.574 267.84 184.254 265.936L189.082 266.956C188.356 269.948 186.747 272.328 184.254 274.096C181.806 275.819 178.791 276.68 175.21 276.68C170.631 276.68 167.004 275.207 164.33 272.26C161.7 269.268 160.386 265.12 160.386 259.816C160.386 254.603 161.768 250.5 164.534 247.508C167.344 244.471 171.062 242.952 175.686 242.952C180.038 242.952 183.483 244.312 186.022 247.032C188.606 249.752 189.898 253.447 189.898 258.116ZM175.686 247.576C172.966 247.576 170.744 248.369 169.022 249.956C167.299 251.497 166.234 253.741 165.826 256.688H184.73C184.639 253.923 183.778 251.724 182.146 250.092C180.559 248.415 178.406 247.576 175.686 247.576ZM203.126 276H197.686V243.632H203.126V256.892H220.398V243.632H225.838V276H220.398V261.924H203.126V276ZM258.305 250.5L241.917 276H236.069V243.632H241.305V268.996L257.557 243.632H263.541V276H258.305V250.5ZM279.161 289.192H273.721V243.632H279.161V248.256C280.249 246.579 281.768 245.287 283.717 244.38C285.712 243.428 287.888 242.952 290.245 242.952C294.552 242.952 298.02 244.448 300.649 247.44C303.324 250.432 304.661 254.444 304.661 259.476C304.661 264.78 303.278 268.973 300.513 272.056C297.793 275.139 294.098 276.68 289.429 276.68C287.298 276.68 285.349 276.317 283.581 275.592C281.813 274.867 280.34 273.824 279.161 272.464V289.192ZM279.161 258.592V262.468C279.161 265.233 280.136 267.5 282.085 269.268C284.034 270.991 286.482 271.852 289.429 271.852C292.421 271.852 294.801 270.741 296.569 268.52C298.337 266.299 299.221 263.352 299.221 259.68C299.221 256.053 298.314 253.175 296.501 251.044C294.733 248.868 292.33 247.78 289.293 247.78C286.437 247.78 284.034 248.8 282.085 250.84C280.136 252.835 279.161 255.419 279.161 258.592ZM341.733 259.748C341.733 265.007 340.373 269.155 337.653 272.192C334.933 275.184 331.215 276.68 326.501 276.68C321.741 276.68 317.955 275.161 315.145 272.124C312.334 269.087 310.929 264.961 310.929 259.748C310.929 254.489 312.311 250.387 315.077 247.44C317.887 244.448 321.695 242.952 326.501 242.952C331.261 242.952 334.978 244.448 337.653 247.44C340.373 250.387 341.733 254.489 341.733 259.748ZM316.369 259.748C316.369 263.465 317.275 266.412 319.089 268.588C320.902 270.764 323.373 271.852 326.501 271.852C329.629 271.852 332.031 270.809 333.709 268.724C335.431 266.593 336.293 263.601 336.293 259.748C336.293 255.895 335.454 252.948 333.777 250.908C332.099 248.823 329.674 247.78 326.501 247.78C323.282 247.78 320.789 248.823 319.021 250.908C317.253 252.993 316.369 255.94 316.369 259.748ZM364.915 276H349.955V243.632H363.963C367.59 243.632 370.333 244.357 372.191 245.808C374.095 247.213 375.047 249.321 375.047 252.132C375.047 253.991 374.639 255.555 373.823 256.824C373.053 258.093 371.919 258.932 370.423 259.34C372.146 259.703 373.483 260.564 374.435 261.924C375.433 263.239 375.931 264.871 375.931 266.82C375.931 269.812 375.002 272.101 373.143 273.688C371.285 275.229 368.542 276 364.915 276ZM369.947 252.744C369.947 251.203 369.471 250.069 368.519 249.344C367.567 248.619 366.117 248.256 364.167 248.256H355.259V257.368H364.575C366.389 257.368 367.726 256.983 368.587 256.212C369.494 255.441 369.947 254.285 369.947 252.744ZM370.763 266.616C370.763 264.984 370.265 263.783 369.267 263.012C368.315 262.196 366.865 261.788 364.915 261.788H355.259V271.376H364.983C366.933 271.376 368.383 270.991 369.335 270.22C370.287 269.404 370.763 268.203 370.763 266.616ZM389.528 276H384.088V243.632H389.528V256.892H395.036L404.692 243.632H411.016L399.456 259.068L411.56 276H405.032L394.968 261.516H389.528V276ZM440.391 250.5L424.003 276H418.155V243.632H423.391V268.996L439.643 243.632H445.627V276H440.391V250.5ZM103.698 331.852C106.01 331.852 107.892 331.331 109.342 330.288C110.793 329.2 111.79 327.591 112.334 325.46L117.57 326.412C116.936 329.676 115.417 332.215 113.014 334.028C110.612 335.796 107.506 336.68 103.698 336.68C99.0289 336.68 95.3343 335.207 92.6143 332.26C89.8943 329.268 88.5343 325.12 88.5343 319.816C88.5343 314.512 89.8943 310.387 92.6143 307.44C95.3343 304.448 99.0289 302.952 103.698 302.952C107.506 302.952 110.612 303.836 113.014 305.604C115.417 307.372 116.958 309.888 117.638 313.152L112.402 314.036C111.813 311.951 110.77 310.387 109.274 309.344C107.824 308.301 105.965 307.78 103.698 307.78C100.661 307.78 98.2809 308.845 96.5583 310.976C94.8356 313.107 93.9743 316.053 93.9743 319.816C93.9743 323.533 94.8356 326.48 96.5583 328.656C98.2809 330.787 100.661 331.852 103.698 331.852ZM167.524 303.632L152.768 340.964C151.589 343.911 150.206 346.019 148.62 347.288C147.033 348.557 144.948 349.192 142.364 349.192H139.236V344.16H141.276C142.953 344.16 144.336 343.775 145.424 343.004C146.512 342.233 147.396 341.032 148.076 339.4L149.504 335.864L135.768 303.632H141.752L152.36 329.268L161.88 303.632H167.524ZM167.431 345.112V330.968H170.831C171.964 330.016 172.916 328.701 173.687 327.024C174.457 325.301 174.911 323.488 175.047 321.584C175.137 320.179 175.205 318.275 175.251 315.872C175.296 313.424 175.341 309.344 175.387 303.632H198.371V330.968H203.607V345.112H198.371V336H172.667V345.112H167.431ZM180.147 322.332C180.011 324.009 179.671 325.573 179.127 327.024C178.628 328.429 177.925 329.744 177.019 330.968H192.931V308.664H180.487C180.487 312.381 180.464 315.305 180.419 317.436C180.373 319.567 180.283 321.199 180.147 322.332ZM238.537 319.748C238.537 325.007 237.177 329.155 234.457 332.192C231.737 335.184 228.02 336.68 223.305 336.68C218.545 336.68 214.76 335.161 211.949 332.124C209.139 329.087 207.733 324.961 207.733 319.748C207.733 314.489 209.116 310.387 211.881 307.44C214.692 304.448 218.5 302.952 223.305 302.952C228.065 302.952 231.783 304.448 234.457 307.44C237.177 310.387 238.537 314.489 238.537 319.748ZM213.173 319.748C213.173 323.465 214.08 326.412 215.893 328.588C217.707 330.764 220.177 331.852 223.305 331.852C226.433 331.852 228.836 330.809 230.513 328.724C232.236 326.593 233.097 323.601 233.097 319.748C233.097 315.895 232.259 312.948 230.581 310.908C228.904 308.823 226.479 307.78 223.305 307.78C220.087 307.78 217.593 308.823 215.825 310.908C214.057 312.993 213.173 315.94 213.173 319.748ZM261.72 336H246.76V303.632H260.768C264.395 303.632 267.137 304.357 268.996 305.808C270.9 307.213 271.852 309.321 271.852 312.132C271.852 313.991 271.444 315.555 270.628 316.824C269.857 318.093 268.724 318.932 267.228 319.34C268.951 319.703 270.288 320.564 271.24 321.924C272.237 323.239 272.736 324.871 272.736 326.82C272.736 329.812 271.807 332.101 269.948 333.688C268.089 335.229 265.347 336 261.72 336ZM266.752 312.744C266.752 311.203 266.276 310.069 265.324 309.344C264.372 308.619 262.921 308.256 260.972 308.256H252.064V317.368H261.38C263.193 317.368 264.531 316.983 265.392 316.212C266.299 315.441 266.752 314.285 266.752 312.744ZM267.568 326.616C267.568 324.984 267.069 323.783 266.072 323.012C265.12 322.196 263.669 321.788 261.72 321.788H252.064V331.376H261.788C263.737 331.376 265.188 330.991 266.14 330.22C267.092 329.404 267.568 328.203 267.568 326.616ZM309.725 319.748C309.725 325.007 308.365 329.155 305.645 332.192C302.925 335.184 299.208 336.68 294.493 336.68C289.733 336.68 285.948 335.161 283.137 332.124C280.326 329.087 278.921 324.961 278.921 319.748C278.921 314.489 280.304 310.387 283.069 307.44C285.88 304.448 289.688 302.952 294.493 302.952C299.253 302.952 302.97 304.448 305.645 307.44C308.365 310.387 309.725 314.489 309.725 319.748ZM284.361 319.748C284.361 323.465 285.268 326.412 287.081 328.588C288.894 330.764 291.365 331.852 294.493 331.852C297.621 331.852 300.024 330.809 301.701 328.724C303.424 326.593 304.285 323.601 304.285 319.748C304.285 315.895 303.446 312.948 301.769 310.908C300.092 308.823 297.666 307.78 294.493 307.78C291.274 307.78 288.781 308.823 287.013 310.908C285.245 312.993 284.361 315.94 284.361 319.748ZM319.869 324.304C319.96 322.581 320.028 320.111 320.073 316.892C320.119 313.673 320.187 309.253 320.277 303.632H343.193V336H337.753V308.664H325.309C325.264 311.565 325.196 314.535 325.105 317.572C325.06 320.609 325.015 323.012 324.969 324.78C324.788 328.905 324.017 331.807 322.657 333.484C321.297 335.161 318.963 336 315.653 336H313.137V330.968H315.109C316.741 330.968 317.92 330.469 318.645 329.472C319.371 328.429 319.779 326.707 319.869 324.304ZM367.145 336H353.409V303.632H358.849V314.784H367.281C371.043 314.784 373.899 315.668 375.849 317.436C377.843 319.159 378.841 321.697 378.841 325.052C378.841 328.679 377.843 331.421 375.849 333.28C373.899 335.093 370.998 336 367.145 336ZM373.537 325.12C373.537 323.125 373.038 321.72 372.041 320.904C371.089 320.088 369.502 319.68 367.281 319.68H358.849V331.104H367.213C369.389 331.104 370.975 330.628 371.973 329.676C373.015 328.724 373.537 327.205 373.537 325.12ZM400.003 331.852C402.315 331.852 404.196 331.331 405.647 330.288C407.098 329.2 408.095 327.591 408.639 325.46L413.875 326.412C413.24 329.676 411.722 332.215 409.319 334.028C406.916 335.796 403.811 336.68 400.003 336.68C395.334 336.68 391.639 335.207 388.919 332.26C386.199 329.268 384.839 325.12 384.839 319.816C384.839 314.512 386.199 310.387 388.919 307.44C391.639 304.448 395.334 302.952 400.003 302.952C403.811 302.952 406.916 303.836 409.319 305.604C411.722 307.372 413.263 309.888 413.943 313.152L408.707 314.036C408.118 311.951 407.075 310.387 405.579 309.344C404.128 308.301 402.27 307.78 400.003 307.78C396.966 307.78 394.586 308.845 392.863 310.976C391.14 313.107 390.279 316.053 390.279 319.816C390.279 323.533 391.14 326.48 392.863 328.656C394.586 330.787 396.966 331.852 400.003 331.852ZM429.975 308.664H418.075V303.632H447.315V308.664H435.415V336H429.975V308.664ZM469.107 336H454.147V303.632H468.155C471.782 303.632 474.524 304.357 476.383 305.808C478.287 307.213 479.239 309.321 479.239 312.132C479.239 313.991 478.831 315.555 478.015 316.824C477.244 318.093 476.111 318.932 474.615 319.34C476.338 319.703 477.675 320.564 478.627 321.924C479.624 323.239 480.123 324.871 480.123 326.82C480.123 329.812 479.194 332.101 477.335 333.688C475.476 335.229 472.734 336 469.107 336ZM474.139 312.744C474.139 311.203 473.663 310.069 472.711 309.344C471.759 308.619 470.308 308.256 468.359 308.256H459.451V317.368H468.767C470.58 317.368 471.918 316.983 472.779 316.212C473.686 315.441 474.139 314.285 474.139 312.744ZM474.955 326.616C474.955 324.984 474.456 323.783 473.459 323.012C472.507 322.196 471.056 321.788 469.107 321.788H459.451V331.376H469.175C471.124 331.376 472.575 330.991 473.527 330.22C474.479 329.404 474.955 328.203 474.955 326.616ZM510.516 310.5L494.128 336H488.28V303.632H493.516V328.996L509.768 303.632H515.752V336H510.516V310.5ZM553.472 318.116C553.472 319.068 553.472 319.725 553.472 320.088C553.472 320.451 553.449 320.745 553.404 320.972H529.196C529.377 324.508 530.284 327.228 531.916 329.132C533.593 331.036 535.883 331.988 538.784 331.988C541.005 331.988 542.887 331.467 544.428 330.424C546.015 329.336 547.148 327.84 547.828 325.936L552.656 326.956C551.931 329.948 550.321 332.328 547.828 334.096C545.38 335.819 542.365 336.68 538.784 336.68C534.205 336.68 530.579 335.207 527.904 332.26C525.275 329.268 523.96 325.12 523.96 319.816C523.96 314.603 525.343 310.5 528.108 307.508C530.919 304.471 534.636 302.952 539.26 302.952C543.612 302.952 547.057 304.312 549.596 307.032C552.18 309.752 553.472 313.447 553.472 318.116ZM539.26 307.576C536.54 307.576 534.319 308.369 532.596 309.956C530.873 311.497 529.808 313.741 529.4 316.688H548.304C548.213 313.923 547.352 311.724 545.72 310.092C544.133 308.415 541.98 307.576 539.26 307.576ZM566.292 336H561.26V303.632H569.216L580.232 330.56L591.044 303.632H599V336H593.696V309.548L582.748 336H577.24L566.292 309.48V336Z" fill="white"/>
<path d="M95.1022 446.443C92.1041 446.443 90.5376 448.01 89.8894 450.414L87.7016 450.008C88.4308 446.389 91.0238 444.364 95.1022 444.364C98.9375 444.364 101.584 446.146 101.584 449.576C101.584 451.629 100.585 453.061 98.7214 453.655C100.693 454.168 101.882 455.464 101.882 457.814C101.882 461.217 99.3697 463.27 94.9401 463.27C90.6726 463.27 87.9717 461.352 87.4855 457.544L89.6733 457.166C90.1324 459.786 91.8881 461.19 94.9401 461.19C98.0192 461.19 99.5587 459.867 99.5587 457.706C99.5587 455.815 98.3163 454.681 95.5883 454.681H92.9144V452.628H95.5883C98.2083 452.628 99.2886 451.521 99.2886 449.684C99.2886 447.74 97.8301 446.443 95.1022 446.443ZM103.677 461.001H105.028C105.919 460.272 106.594 458.841 106.702 457.274C106.783 456.113 106.81 454.438 106.837 450.144H115.967V461.001H118.046V466.619H115.967V463H105.757V466.619H103.677V461.001ZM108.728 457.571C108.593 459.084 108.08 460.191 107.486 461.001H113.806V452.142H108.863C108.863 454.627 108.836 456.518 108.728 457.571ZM131.38 457.031H121.765C121.873 459.921 123.305 461.406 125.573 461.406C127.626 461.406 128.734 460.245 129.166 459.003L131.083 459.408C130.543 461.596 128.625 463.27 125.573 463.27C122.197 463.27 119.685 461.055 119.685 456.572C119.685 452.088 122.386 449.873 125.762 449.873C129.139 449.873 131.407 452.115 131.407 455.897C131.407 456.356 131.407 456.788 131.38 457.031ZM125.762 451.71C123.656 451.71 122.197 452.925 121.846 455.329H129.355C129.301 453.277 128.031 451.71 125.762 451.71ZM143.171 458.814L145.251 459.192C144.791 461.514 143.09 463.27 139.741 463.27C136.284 463.27 133.718 461.055 133.718 456.572C133.718 452.088 136.284 449.873 139.741 449.873C143.09 449.873 144.791 451.629 145.278 453.925L143.198 454.276C142.847 453.061 141.982 451.791 139.741 451.791C137.256 451.791 135.878 453.655 135.878 456.572C135.878 459.435 137.256 461.352 139.741 461.352C142.01 461.352 142.847 460.083 143.171 458.814ZM148.269 463V450.144H150.43V454.573H153.779C156.831 454.573 158.371 456.032 158.371 458.651C158.371 461.379 156.939 463 153.725 463H148.269ZM153.779 456.518H150.43V461.055H153.752C155.724 461.055 156.264 460.083 156.264 458.678C156.264 457.247 155.724 456.518 153.779 456.518ZM167.339 463V450.144H172.903C175.874 450.144 177.306 451.359 177.306 453.52C177.306 454.816 176.793 456.005 175.469 456.383C176.955 456.707 177.657 457.922 177.657 459.354C177.657 461.541 176.361 463 173.282 463H167.339ZM172.984 451.98H169.446V455.599H173.146C174.632 455.599 175.28 454.951 175.28 453.763C175.28 452.601 174.605 451.98 172.984 451.98ZM173.282 457.355H169.446V461.163H173.309C174.929 461.163 175.604 460.488 175.604 459.273C175.604 458.003 174.875 457.355 173.282 457.355ZM192.862 463V450.144H195.023V463H192.862ZM180.897 463V450.144H183.058V454.573H186.407C189.405 454.573 190.944 456.032 190.944 458.651C190.944 461.379 189.513 463 186.353 463H180.897ZM186.407 456.518H183.058V461.055H186.38C188.352 461.055 188.892 460.083 188.892 458.678C188.892 457.247 188.352 456.518 186.407 456.518ZM213.543 458.814L215.623 459.192C215.164 461.514 213.462 463.27 210.113 463.27C206.656 463.27 204.09 461.055 204.09 456.572C204.09 452.088 206.656 449.873 210.113 449.873C213.462 449.873 215.164 451.629 215.65 453.925L213.57 454.276C213.219 453.061 212.355 451.791 210.113 451.791C207.628 451.791 206.251 453.655 206.251 456.572C206.251 459.435 207.628 461.352 210.113 461.352C212.382 461.352 213.219 460.083 213.543 458.814ZM218.642 463V450.144H221.802L226.177 460.839L230.472 450.144H233.632V463H231.525V452.493L227.177 463H224.989L220.64 452.466V463H218.642ZM243.087 463.27C239.522 463.27 236.902 460.92 236.902 456.545C236.902 452.196 239.441 449.873 243.087 449.873C246.706 449.873 249.137 452.196 249.137 456.545C249.137 460.839 246.706 463.27 243.087 463.27ZM243.087 461.352C245.68 461.352 246.977 459.489 246.977 456.545C246.977 453.574 245.68 451.791 243.087 451.791C240.521 451.791 239.063 453.547 239.063 456.545C239.063 459.489 240.602 461.352 243.087 461.352ZM250.497 463L254.575 456.194L250.659 450.144H253.036L256.304 455.41H258.519V450.144H260.572V455.41H262.786L266.054 450.144H268.431L264.488 456.221L268.62 463H266.135L262.786 457.247H260.572V463H258.519V457.247H256.304L252.982 463H250.497ZM281.673 457.031H272.058C272.166 459.921 273.597 461.406 275.866 461.406C277.919 461.406 279.026 460.245 279.458 459.003L281.376 459.408C280.836 461.596 278.918 463.27 275.866 463.27C272.49 463.27 269.978 461.055 269.978 456.572C269.978 452.088 272.679 449.873 276.055 449.873C279.431 449.873 281.7 452.115 281.7 455.897C281.7 456.356 281.7 456.788 281.673 457.031ZM276.055 451.71C273.948 451.71 272.49 452.925 272.139 455.329H279.647C279.593 453.277 278.324 451.71 276.055 451.71ZM283.311 452.142V450.144H294.925V452.142H290.199V463H288.038V452.142H283.311ZM308.155 457.031H298.54C298.648 459.921 300.079 461.406 302.348 461.406C304.401 461.406 305.508 460.245 305.94 459.003L307.858 459.408C307.318 461.596 305.4 463.27 302.348 463.27C298.972 463.27 296.46 461.055 296.46 456.572C296.46 452.088 299.161 449.873 302.537 449.873C305.913 449.873 308.182 452.115 308.182 455.897C308.182 456.356 308.182 456.788 308.155 457.031ZM302.537 451.71C300.43 451.71 298.972 452.925 298.621 455.329H306.129C306.075 453.277 304.806 451.71 302.537 451.71ZM317.078 468.24V450.144H319.239V451.98C320.157 450.576 321.886 449.873 323.641 449.873C326.802 449.873 329.367 452.142 329.367 456.437C329.367 460.704 326.964 463.27 323.317 463.27C321.616 463.27 320.184 462.676 319.239 461.596V468.24H317.078ZM319.239 457.625C319.239 459.975 321.13 461.352 323.317 461.352C325.694 461.352 327.207 459.435 327.207 456.518C327.207 453.682 325.721 451.791 323.263 451.791C321.265 451.791 319.239 453.277 319.239 456.086V457.625ZM340.5 463V461.487C339.69 462.541 338.366 463.27 336.53 463.27C333.721 463.27 331.965 461.866 331.965 459.462C331.965 456.788 333.883 455.68 336.854 455.572C338.177 455.518 339.447 455.572 340.446 455.599V454.492C340.446 452.601 339.366 451.737 337.718 451.737C335.854 451.737 334.855 452.79 334.45 454.114L332.424 453.709C332.991 451.332 334.828 449.873 337.718 449.873C340.581 449.873 342.526 451.251 342.526 454.411V463H340.5ZM340.446 457.301C339.366 457.247 338.123 457.247 336.908 457.301C335.071 457.382 334.126 458.084 334.126 459.354C334.126 460.596 335.071 461.433 336.584 461.433C338.771 461.433 340.446 460.272 340.446 458.543V457.301ZM350.975 461.433C353.055 461.433 354.054 460.515 354.054 459.219C354.054 458.003 353.271 457.355 351.461 457.355H349.193V455.599H351.461C353.109 455.599 353.784 454.897 353.784 453.736C353.784 452.493 352.947 451.71 351.11 451.71C349.085 451.71 348.004 452.763 347.572 454.195L345.492 453.79C346.086 451.278 348.166 449.873 351.11 449.873C354.054 449.873 355.891 451.17 355.891 453.52C355.891 454.87 355.243 455.978 354 456.41C355.378 456.788 356.215 457.814 356.215 459.381C356.215 461.812 354.243 463.27 350.975 463.27C348.004 463.27 345.924 461.974 345.411 459.327L347.491 458.922C347.815 460.326 348.895 461.433 350.975 461.433ZM359.465 463V450.144H365.029C368 450.144 369.431 451.359 369.431 453.52C369.431 454.816 368.918 456.005 367.595 456.383C369.08 456.707 369.783 457.922 369.783 459.354C369.783 461.541 368.486 463 365.407 463H359.465ZM365.11 451.98H361.572V455.599H365.272C366.758 455.599 367.406 454.951 367.406 453.763C367.406 452.601 366.731 451.98 365.11 451.98ZM365.407 457.355H361.572V461.163H365.434C367.055 461.163 367.73 460.488 367.73 459.273C367.73 458.003 367.001 457.355 365.407 457.355ZM375.345 463H373.022V450.144H375.102V460.218L381.557 450.144H383.934V463H381.855V452.871L375.345 463ZM387.978 463V450.144H393.542C396.513 450.144 397.944 451.359 397.944 453.52C397.944 454.816 397.431 456.005 396.108 456.383C397.593 456.707 398.295 457.922 398.295 459.354C398.295 461.541 396.999 463 393.92 463H387.978ZM393.623 451.98H390.085V455.599H393.785C395.27 455.599 395.919 454.951 395.919 453.763C395.919 452.601 395.243 451.98 393.623 451.98ZM393.92 457.355H390.085V461.163H393.947C395.568 461.163 396.243 460.488 396.243 459.273C396.243 458.003 395.514 457.355 393.92 457.355ZM409.395 463V461.487C408.585 462.541 407.261 463.27 405.425 463.27C402.616 463.27 400.86 461.866 400.86 459.462C400.86 456.788 402.778 455.68 405.749 455.572C407.072 455.518 408.342 455.572 409.341 455.599V454.492C409.341 452.601 408.261 451.737 406.613 451.737C404.749 451.737 403.75 452.79 403.345 454.114L401.319 453.709C401.886 451.332 403.723 449.873 406.613 449.873C409.476 449.873 411.421 451.251 411.421 454.411V463H409.395ZM409.341 457.301C408.261 457.247 407.018 457.247 405.803 457.301C403.966 457.382 403.021 458.084 403.021 459.354C403.021 460.596 403.966 461.433 405.479 461.433C407.666 461.433 409.341 460.272 409.341 458.543V457.301ZM413.663 452.142V450.144H425.277V452.142H420.551V463H418.39V452.142H413.663ZM427.991 463V450.144H430.152V454.573H433.501C436.553 454.573 438.092 456.032 438.092 458.651C438.092 461.379 436.661 463 433.447 463H427.991ZM433.501 456.518H430.152V461.055H433.474C435.445 461.055 435.986 460.083 435.986 458.678C435.986 457.247 435.445 456.518 433.501 456.518ZM90.3485 497H88.0257V484.144H90.1054V494.218L96.5607 484.144H98.9375V497H96.8578V486.871L90.3485 497ZM108.784 497V484.144H119.75V497H117.589V486.142H110.945V497H108.784ZM129.194 497.27C125.629 497.27 123.009 494.92 123.009 490.545C123.009 486.196 125.548 483.873 129.194 483.873C132.813 483.873 135.244 486.196 135.244 490.545C135.244 494.839 132.813 497.27 129.194 497.27ZM129.194 495.352C131.787 495.352 133.083 493.489 133.083 490.545C133.083 487.574 131.787 485.791 129.194 485.791C126.628 485.791 125.17 487.547 125.17 490.545C125.17 493.489 126.709 495.352 129.194 495.352ZM136.305 495.001H137.655C138.547 494.272 139.222 492.841 139.33 491.274C139.411 490.113 139.438 488.438 139.465 484.144H148.594V495.001H150.674V500.619H148.594V497H138.385V500.619H136.305V495.001ZM141.356 491.571C141.221 493.084 140.707 494.191 140.113 495.001H146.433V486.142H141.491C141.491 488.627 141.464 490.518 141.356 491.571ZM151.814 495.001H153.165C154.056 494.272 154.731 492.841 154.839 491.274C154.92 490.113 154.947 488.438 154.974 484.144H164.103V495.001H166.183V500.619H164.103V497H153.894V500.619H151.814V495.001ZM156.865 491.571C156.73 493.084 156.217 494.191 155.622 495.001H161.943V486.142H157C157 488.627 156.973 490.518 156.865 491.571ZM179.517 491.031H169.902C170.01 493.921 171.442 495.406 173.71 495.406C175.763 495.406 176.87 494.245 177.303 493.003L179.22 493.408C178.68 495.596 176.762 497.27 173.71 497.27C170.334 497.27 167.822 495.055 167.822 490.572C167.822 486.088 170.523 483.873 173.899 483.873C177.276 483.873 179.544 486.115 179.544 489.897C179.544 490.356 179.544 490.788 179.517 491.031ZM173.899 485.71C171.793 485.71 170.334 486.925 169.983 489.329H177.492C177.438 487.277 176.168 485.71 173.899 485.71ZM182.638 502.24V484.144H184.799V485.98C185.717 484.576 187.445 483.873 189.201 483.873C192.361 483.873 194.927 486.142 194.927 490.437C194.927 494.704 192.523 497.27 188.877 497.27C187.175 497.27 185.744 496.676 184.799 495.596V502.24H182.638ZM184.799 491.625C184.799 493.975 186.689 495.352 188.877 495.352C191.254 495.352 192.766 493.435 192.766 490.518C192.766 487.682 191.281 485.791 188.823 485.791C186.824 485.791 184.799 487.277 184.799 490.086V491.625ZM196.294 497L200.372 490.194L196.456 484.144H198.832L202.101 489.41H204.315V484.144H206.368V489.41H208.583L211.851 484.144H214.228L210.284 490.221L214.417 497H211.932L208.583 491.247H206.368V497H204.315V491.247H202.101L198.778 497H196.294ZM219.355 497H217.033V484.144H219.112V494.218L225.568 484.144H227.944V497H225.865V486.871L219.355 497ZM231.988 497V484.144H237.552C240.523 484.144 241.954 485.359 241.954 487.52C241.954 488.816 241.441 490.005 240.118 490.383C241.603 490.707 242.306 491.922 242.306 493.354C242.306 495.541 241.009 497 237.93 497H231.988ZM237.633 485.98H234.095V489.599H237.795C239.281 489.599 239.929 488.951 239.929 487.763C239.929 486.601 239.254 485.98 237.633 485.98ZM237.93 491.355H234.095V495.163H237.957C239.578 495.163 240.253 494.488 240.253 493.273C240.253 492.003 239.524 491.355 237.93 491.355ZM253.405 497V495.487C252.595 496.541 251.271 497.27 249.435 497.27C246.626 497.27 244.87 495.866 244.87 493.462C244.87 490.788 246.788 489.68 249.759 489.572C251.082 489.518 252.352 489.572 253.351 489.599V488.492C253.351 486.601 252.271 485.737 250.623 485.737C248.76 485.737 247.76 486.79 247.355 488.114L245.329 487.709C245.897 485.332 247.733 483.873 250.623 483.873C253.486 483.873 255.431 485.251 255.431 488.411V497H253.405ZM253.351 491.301C252.271 491.247 251.028 491.247 249.813 491.301C247.976 491.382 247.031 492.084 247.031 493.354C247.031 494.596 247.976 495.433 249.489 495.433C251.677 495.433 253.351 494.272 253.351 492.543V491.301ZM257.673 486.142V484.144H269.287V486.142H264.561V497H262.4V486.142H257.673ZM272.001 497V484.144H274.162V488.573H277.511C280.563 488.573 282.102 490.032 282.102 492.651C282.102 495.379 280.671 497 277.457 497H272.001ZM277.511 490.518H274.162V495.055H277.484C279.456 495.055 279.996 494.083 279.996 492.678C279.996 491.247 279.456 490.518 277.511 490.518ZM291.071 497V484.144H302.037V497H299.876V486.142H293.232V497H291.071ZM313.939 497V495.487C313.129 496.541 311.805 497.27 309.969 497.27C307.16 497.27 305.404 495.866 305.404 493.462C305.404 490.788 307.322 489.68 310.293 489.572C311.616 489.518 312.886 489.572 313.885 489.599V488.492C313.885 486.601 312.805 485.737 311.157 485.737C309.293 485.737 308.294 486.79 307.889 488.114L305.863 487.709C306.43 485.332 308.267 483.873 311.157 483.873C314.02 483.873 315.965 485.251 315.965 488.411V497H313.939ZM313.885 491.301C312.805 491.247 311.562 491.247 310.347 491.301C308.51 491.382 307.565 492.084 307.565 493.354C307.565 494.596 308.51 495.433 310.023 495.433C312.21 495.433 313.885 494.272 313.885 492.543V491.301ZM319.821 497V484.144H322.981L327.357 494.839L331.651 484.144H334.812V497H332.705V486.493L328.356 497H326.169L321.82 486.466V497H319.821ZM338.271 488.249C338.271 485.494 340.162 484.144 342.998 484.144H348.669V497H346.509V492.165H343.619L340.486 497H337.974L341.404 492.03C339.378 491.598 338.271 490.302 338.271 488.249ZM343.052 490.329H346.509V486.034H343.052C341.35 486.034 340.405 486.79 340.405 488.168C340.405 489.545 341.323 490.329 343.052 490.329ZM351.362 486.142V484.144H362.976V486.142H358.25V497H356.089V486.142H351.362ZM365.69 497V484.144H367.851V488.573H371.2C374.252 488.573 375.791 490.032 375.791 492.651C375.791 495.379 374.36 497 371.146 497H365.69ZM371.2 490.518H367.851V495.055H371.173C373.144 495.055 373.685 494.083 373.685 492.678C373.685 491.247 373.144 490.518 371.2 490.518ZM378.768 497V494.029H381.712V497.486C381.712 499.647 380.416 500.565 378.552 500.862L378.255 499.431C379.497 499.215 380.2 498.648 380.2 497.486V497H378.768ZM391.249 497V484.144H396.812C399.784 484.144 401.215 485.359 401.215 487.52C401.215 488.816 400.702 490.005 399.378 490.383C400.864 490.707 401.566 491.922 401.566 493.354C401.566 495.541 400.27 497 397.191 497H391.249ZM396.894 485.98H393.355V489.599H397.056C398.541 489.599 399.189 488.951 399.189 487.763C399.189 486.601 398.514 485.98 396.894 485.98ZM397.191 491.355H393.355V495.163H397.218C398.838 495.163 399.513 494.488 399.513 493.273C399.513 492.003 398.784 491.355 397.191 491.355ZM404.806 497V484.144H406.967V489.41H413.827V484.144H415.988V497H413.827V491.409H406.967V497H404.806ZM422.374 497H420.052V484.144H422.131V494.218L428.587 484.144H430.963V497H428.884V486.871L422.374 497ZM435.007 497V484.144H438.167L442.543 494.839L446.837 484.144H449.997V497H447.89V486.493L443.542 497H441.354L437.006 486.466V497H435.007ZM461.91 497V495.487C461.1 496.541 459.777 497.27 457.94 497.27C455.131 497.27 453.375 495.866 453.375 493.462C453.375 490.788 455.293 489.68 458.264 489.572C459.588 489.518 460.857 489.572 461.856 489.599V488.492C461.856 486.601 460.776 485.737 459.128 485.737C457.265 485.737 456.265 486.79 455.86 488.114L453.835 487.709C454.402 485.332 456.238 483.873 459.128 483.873C461.991 483.873 463.936 485.251 463.936 488.411V497H461.91ZM461.856 491.301C460.776 491.247 459.534 491.247 458.318 491.301C456.482 491.382 455.536 492.084 455.536 493.354C455.536 494.596 456.482 495.433 457.994 495.433C460.182 495.433 461.856 494.272 461.856 492.543V491.301ZM467.793 497V484.144H469.954V489.41H476.814V484.144H478.975V497H476.814V491.409H469.954V497H467.793ZM485.361 497H483.038V484.144H485.118V494.218L491.573 484.144H493.95V497H491.87V486.871L485.361 497ZM508.906 491.031H499.29C499.398 493.921 500.83 495.406 503.099 495.406C505.151 495.406 506.259 494.245 506.691 493.003L508.608 493.408C508.068 495.596 506.151 497.27 503.099 497.27C499.722 497.27 497.21 495.055 497.21 490.572C497.21 486.088 499.911 483.873 503.288 483.873C506.664 483.873 508.933 486.115 508.933 489.897C508.933 490.356 508.933 490.788 508.906 491.031ZM503.288 485.71C501.181 485.71 499.722 486.925 499.371 489.329H506.88C506.826 487.277 505.556 485.71 503.288 485.71ZM520.152 497H517.829V484.144H519.909V494.218L526.364 484.144H528.741V497H526.661V486.871L520.152 497ZM538.587 497V484.144H541.747L546.123 494.839L550.417 484.144H553.577V497H551.47V486.493L547.122 497H544.934L540.586 486.466V497H538.587ZM569.596 497V484.144H571.757V497H569.596ZM557.631 497V484.144H559.792V488.573H563.141C566.139 488.573 567.678 490.032 567.678 492.651C567.678 495.379 566.247 497 563.087 497H557.631ZM563.141 490.518H559.792V495.055H563.114C565.085 495.055 565.626 494.083 565.626 492.678C565.626 491.247 565.085 490.518 563.141 490.518ZM592.874 484.144V497H575.804V484.144H577.965V495.001H583.259V484.144H585.419V495.001H590.713V484.144H592.874ZM597.985 492.354C598.066 490.329 598.12 486.223 598.147 484.144H607.249V497H605.088V486.142H600.146C600.119 488.249 600.065 491.004 600.011 492.543C599.876 495.974 598.795 497 596.31 497H595.311V495.001H596.094C597.391 495.001 597.904 494.245 597.985 492.354ZM622.218 491.031H612.603C612.711 493.921 614.143 495.406 616.411 495.406C618.464 495.406 619.572 494.245 620.004 493.003L621.921 493.408C621.381 495.596 619.463 497.27 616.411 497.27C613.035 497.27 610.523 495.055 610.523 490.572C610.523 486.088 613.224 483.873 616.6 483.873C619.977 483.873 622.245 486.115 622.245 489.897C622.245 490.356 622.245 490.788 622.218 491.031ZM616.6 485.71C614.494 485.71 613.035 486.925 612.684 489.329H620.193C620.139 487.277 618.869 485.71 616.6 485.71ZM625.339 497V484.144H627.5V489.41H634.36V484.144H636.521V497H634.36V491.409H627.5V497H625.339ZM642.907 497H640.584V484.144H642.664V494.218L649.119 484.144H651.496V497H649.416V486.871L642.907 497ZM666.452 491.031H656.836C656.944 493.921 658.376 495.406 660.645 495.406C662.697 495.406 663.805 494.245 664.237 493.003L666.155 493.408C665.614 495.596 663.697 497.27 660.645 497.27C657.268 497.27 654.757 495.055 654.757 490.572C654.757 486.088 657.458 483.873 660.834 483.873C664.21 483.873 666.479 486.115 666.479 489.897C666.479 490.356 666.479 490.788 666.452 491.031ZM660.834 485.71C658.727 485.71 657.268 486.925 656.917 489.329H664.426C664.372 487.277 663.103 485.71 660.834 485.71ZM96.6957 526.814L98.7755 527.192C98.3163 529.514 96.6147 531.27 93.2655 531.27C89.8083 531.27 87.2424 529.055 87.2424 524.572C87.2424 520.088 89.8083 517.873 93.2655 517.873C96.6147 517.873 98.3163 519.629 98.8025 521.925L96.7227 522.276C96.3716 521.061 95.5073 519.791 93.2655 519.791C90.7807 519.791 89.4032 521.655 89.4032 524.572C89.4032 527.435 90.7807 529.352 93.2655 529.352C95.5343 529.352 96.3716 528.083 96.6957 526.814ZM101.794 531V518.144H107.358C110.329 518.144 111.761 519.359 111.761 521.52C111.761 522.816 111.247 524.005 109.924 524.383C111.41 524.707 112.112 525.922 112.112 527.354C112.112 529.541 110.815 531 107.736 531H101.794ZM107.439 519.98H103.901V523.599H107.601C109.087 523.599 109.735 522.951 109.735 521.763C109.735 520.601 109.06 519.98 107.439 519.98ZM107.736 525.355H103.901V529.163H107.763C109.384 529.163 110.059 528.488 110.059 527.273C110.059 526.003 109.33 525.355 107.736 525.355ZM120.754 531.27C117.188 531.27 114.568 528.92 114.568 524.545C114.568 520.196 117.107 517.873 120.754 517.873C124.373 517.873 126.804 520.196 126.804 524.545C126.804 528.839 124.373 531.27 120.754 531.27ZM120.754 529.352C123.346 529.352 124.643 527.489 124.643 524.545C124.643 521.574 123.346 519.791 120.754 519.791C118.188 519.791 116.729 521.547 116.729 524.545C116.729 527.489 118.269 529.352 120.754 529.352ZM132.392 531H130.07V518.144H132.149V528.218L138.605 518.144H140.981V531H138.902V520.871L132.392 531ZM153.209 531L149.644 525.841L146.078 531H143.594L148.401 524.464L143.864 518.144H146.403L149.725 522.897L152.993 518.144H155.478L150.94 524.302L155.748 531H153.209ZM164.095 536.24V518.144H166.256V519.98C167.174 518.576 168.903 517.873 170.658 517.873C173.819 517.873 176.384 520.142 176.384 524.437C176.384 528.704 173.981 531.27 170.334 531.27C168.633 531.27 167.201 530.676 166.256 529.596V536.24H164.095ZM166.256 525.625C166.256 527.975 168.147 529.352 170.334 529.352C172.711 529.352 174.224 527.435 174.224 524.518C174.224 521.682 172.738 519.791 170.28 519.791C168.282 519.791 166.256 521.277 166.256 524.086V525.625ZM185.059 531.27C181.494 531.27 178.874 528.92 178.874 524.545C178.874 520.196 181.413 517.873 185.059 517.873C188.678 517.873 191.109 520.196 191.109 524.545C191.109 528.839 188.678 531.27 185.059 531.27ZM185.059 529.352C187.652 529.352 188.948 527.489 188.948 524.545C188.948 521.574 187.652 519.791 185.059 519.791C182.493 519.791 181.035 521.547 181.035 524.545C181.035 527.489 182.574 529.352 185.059 529.352ZM192.17 529.001H193.52C194.412 528.272 195.087 526.841 195.195 525.274C195.276 524.113 195.303 522.438 195.33 518.144H204.459V529.001H206.539V534.619H204.459V531H194.25V534.619H192.17V529.001ZM197.221 525.571C197.086 527.084 196.573 528.191 195.978 529.001H202.299V520.142H197.356C197.356 522.627 197.329 524.518 197.221 525.571ZM211.284 531H208.961V518.144H211.041V528.218L217.496 518.144H219.873V531H217.793V520.871L211.284 531ZM222.566 520.142V518.144H234.18V520.142H229.454V531H227.293V520.142H222.566ZM247.41 525.031H237.795C237.903 527.921 239.334 529.406 241.603 529.406C243.656 529.406 244.763 528.245 245.195 527.003L247.113 527.408C246.573 529.596 244.655 531.27 241.603 531.27C238.227 531.27 235.715 529.055 235.715 524.572C235.715 520.088 238.416 517.873 241.792 517.873C245.168 517.873 247.437 520.115 247.437 523.897C247.437 524.356 247.437 524.788 247.41 525.031ZM241.792 519.71C239.685 519.71 238.227 520.925 237.876 523.329H245.384C245.33 521.277 244.061 519.71 241.792 519.71ZM251.452 526.354C251.533 524.329 251.587 520.223 251.614 518.144H260.716V531H258.556V520.142H253.613C253.586 522.249 253.532 525.004 253.478 526.543C253.343 529.974 252.262 531 249.777 531H248.778V529.001H249.561C250.858 529.001 251.371 528.245 251.452 526.354ZM275.686 525.031H266.07C266.178 527.921 267.61 529.406 269.879 529.406C271.931 529.406 273.039 528.245 273.471 527.003L275.389 527.408C274.848 529.596 272.931 531.27 269.879 531.27C266.502 531.27 263.991 529.055 263.991 524.572C263.991 520.088 266.691 517.873 270.068 517.873C273.444 517.873 275.713 520.115 275.713 523.897C275.713 524.356 275.713 524.788 275.686 525.031ZM270.068 519.71C267.961 519.71 266.502 520.925 266.151 523.329H273.66C273.606 521.277 272.336 519.71 270.068 519.71ZM284.316 516.685C281.669 516.685 280.481 515.308 280.427 513.228H282.236C282.371 514.416 282.965 515.118 284.316 515.118C285.639 515.118 286.207 514.416 286.342 513.228H288.151C288.07 515.308 286.936 516.685 284.316 516.685ZM281.129 531H278.806V518.144H280.886V528.218L287.341 518.144H289.718V531H287.638V520.871L281.129 531ZM308.234 526.814L310.314 527.192C309.855 529.514 308.153 531.27 304.804 531.27C301.347 531.27 298.781 529.055 298.781 524.572C298.781 520.088 301.347 517.873 304.804 517.873C308.153 517.873 309.855 519.629 310.341 521.925L308.261 522.276C307.91 521.061 307.046 519.791 304.804 519.791C302.319 519.791 300.942 521.655 300.942 524.572C300.942 527.435 302.319 529.352 304.804 529.352C307.073 529.352 307.91 528.083 308.234 526.814ZM319.136 531V518.144H330.101V531H327.941V520.142H321.296V531H319.136ZM339.546 531.27C335.98 531.27 333.36 528.92 333.36 524.545C333.36 520.196 335.899 517.873 339.546 517.873C343.165 517.873 345.596 520.196 345.596 524.545C345.596 528.839 343.165 531.27 339.546 531.27ZM339.546 529.352C342.138 529.352 343.435 527.489 343.435 524.545C343.435 521.574 342.138 519.791 339.546 519.791C336.98 519.791 335.521 521.547 335.521 524.545C335.521 527.489 337.061 529.352 339.546 529.352ZM348.862 531V518.144H352.022L356.397 528.839L360.692 518.144H363.852V531H361.745V520.493L357.397 531H355.209L350.86 520.466V531H348.862ZM373.307 531.27C369.742 531.27 367.122 528.92 367.122 524.545C367.122 520.196 369.661 517.873 373.307 517.873C376.927 517.873 379.357 520.196 379.357 524.545C379.357 528.839 376.927 531.27 373.307 531.27ZM373.307 529.352C375.9 529.352 377.197 527.489 377.197 524.545C377.197 521.574 375.9 519.791 373.307 519.791C370.741 519.791 369.283 521.547 369.283 524.545C369.283 527.489 370.822 529.352 373.307 529.352ZM399.693 518.144V529.001H401.773V534.619H399.693V531H382.623V518.144H384.784V529.001H390.078V518.144H392.239V529.001H397.533V518.144H399.693ZM404.199 531V518.144H406.36V522.573H409.709C412.761 522.573 414.301 524.032 414.301 526.651C414.301 529.379 412.869 531 409.655 531H404.199ZM409.709 524.518H406.36V529.055H409.682C411.654 529.055 412.194 528.083 412.194 526.678C412.194 525.247 411.654 524.518 409.709 524.518ZM417.467 531V518.144H419.627V523.491H422.328C422.706 519.872 425.11 517.873 428.432 517.873C432.052 517.873 434.483 520.277 434.483 524.545C434.483 528.758 432.052 531.27 428.432 531.27C425.11 531.27 422.625 529.136 422.301 525.355H419.627V531H417.467ZM428.432 529.352C431.025 529.352 432.322 527.543 432.322 524.545C432.322 521.52 431.025 519.791 428.432 519.791C425.867 519.791 424.408 521.493 424.408 524.545C424.408 527.543 425.948 529.352 428.432 529.352ZM445.876 531H443.553V518.144H445.633V528.218L452.088 518.144H454.465V531H452.385V520.871L445.876 531ZM458.508 531V518.144H460.669V523.41H467.529V518.144H469.69V531H467.529V525.409H460.669V531H458.508ZM472.403 520.142V518.144H484.017V520.142H479.291V531H477.13V520.142H472.403ZM497.247 525.031H487.632C487.74 527.921 489.171 529.406 491.44 529.406C493.493 529.406 494.6 528.245 495.032 527.003L496.95 527.408C496.41 529.596 494.492 531.27 491.44 531.27C488.064 531.27 485.552 529.055 485.552 524.572C485.552 520.088 488.253 517.873 491.629 517.873C495.005 517.873 497.274 520.115 497.274 523.897C497.274 524.356 497.274 524.788 497.247 525.031ZM491.629 519.71C489.523 519.71 488.064 520.925 487.713 523.329H495.221C495.167 521.277 493.898 519.71 491.629 519.71ZM500.368 536.24V518.144H502.528V519.98C503.447 518.576 505.175 517.873 506.931 517.873C510.091 517.873 512.657 520.142 512.657 524.437C512.657 528.704 510.253 531.27 506.607 531.27C504.905 531.27 503.474 530.676 502.528 529.596V536.24H500.368ZM502.528 525.625C502.528 527.975 504.419 529.352 506.607 529.352C508.984 529.352 510.496 527.435 510.496 524.518C510.496 521.682 509.011 519.791 506.553 519.791C504.554 519.791 502.528 521.277 502.528 524.086V525.625ZM523.789 531V529.487C522.979 530.541 521.656 531.27 519.819 531.27C517.01 531.27 515.254 529.866 515.254 527.462C515.254 524.788 517.172 523.68 520.143 523.572C521.467 523.518 522.736 523.572 523.735 523.599V522.492C523.735 520.601 522.655 519.737 521.007 519.737C519.144 519.737 518.144 520.79 517.739 522.114L515.714 521.709C516.281 519.332 518.117 517.873 521.007 517.873C523.87 517.873 525.815 519.251 525.815 522.411V531H523.789ZM523.735 525.301C522.655 525.247 521.413 525.247 520.197 525.301C518.361 525.382 517.415 526.084 517.415 527.354C517.415 528.596 518.361 529.433 519.873 529.433C522.061 529.433 523.735 528.272 523.735 526.543V525.301ZM529.672 531V518.144H531.833V523.41H534.02L537.856 518.144H540.367L535.776 524.275L540.584 531H537.991L533.993 525.247H531.833V531H529.672ZM541.852 520.142V518.144H553.466V520.142H548.74V531H546.579V520.142H541.852ZM558.503 531H556.18V518.144H558.26V528.218L564.715 518.144H567.092V531H565.012V520.871L558.503 531ZM571.135 531V518.144H576.699C579.67 518.144 581.102 519.359 581.102 521.52C581.102 522.816 580.589 524.005 579.265 524.383C580.751 524.707 581.453 525.922 581.453 527.354C581.453 529.541 580.157 531 577.078 531H571.135ZM576.78 519.98H573.242V523.599H576.942C578.428 523.599 579.076 522.951 579.076 521.763C579.076 520.601 578.401 519.98 576.78 519.98ZM577.078 525.355H573.242V529.163H577.105C578.725 529.163 579.4 528.488 579.4 527.273C579.4 526.003 578.671 525.355 577.078 525.355ZM584.693 531V518.144H586.854V523.41H593.714V518.144H595.875V531H593.714V525.409H586.854V531H584.693ZM611.904 531V518.144H614.064V531H611.904ZM599.938 531V518.144H602.099V522.573H605.448C608.446 522.573 609.986 524.032 609.986 526.651C609.986 529.379 608.554 531 605.394 531H599.938ZM605.448 524.518H602.099V529.055H605.421C607.393 529.055 607.933 528.083 607.933 526.678C607.933 525.247 607.393 524.518 605.448 524.518ZM626.296 531L622.73 525.841L619.165 531H616.68L621.488 524.464L616.95 518.144H619.489L622.811 522.897L626.08 518.144H628.564L624.027 524.302L628.835 531H626.296ZM93.1845 566.972C92.2122 569.43 91.0238 570.24 89.0521 570.24H87.8096V568.241H88.6199C89.8353 568.241 90.7266 567.782 91.3209 566.35L91.8881 564.946L86.4322 552.144H88.809L93.0224 562.326L96.8038 552.144H99.0455L93.1845 566.972ZM101.451 565V552.144H112.417V565H110.256V554.142H103.612V565H101.451ZM116.459 570.24V552.144H118.62V553.98C119.539 552.576 121.267 551.873 123.023 551.873C126.183 551.873 128.749 554.142 128.749 558.437C128.749 562.704 126.345 565.27 122.699 565.27C120.997 565.27 119.566 564.676 118.62 563.596V570.24H116.459ZM118.62 559.625C118.62 561.975 120.511 563.352 122.699 563.352C125.075 563.352 126.588 561.435 126.588 558.518C126.588 555.682 125.102 553.791 122.645 553.791C120.646 553.791 118.62 555.277 118.62 558.086V559.625ZM139.881 565V563.487C139.071 564.541 137.747 565.27 135.911 565.27C133.102 565.27 131.346 563.866 131.346 561.462C131.346 558.788 133.264 557.68 136.235 557.572C137.558 557.518 138.828 557.572 139.827 557.599V556.492C139.827 554.601 138.747 553.737 137.099 553.737C135.236 553.737 134.236 554.79 133.831 556.114L131.805 555.709C132.373 553.332 134.209 551.873 137.099 551.873C139.962 551.873 141.907 553.251 141.907 556.411V565H139.881ZM139.827 559.301C138.747 559.247 137.504 559.247 136.289 559.301C134.452 559.382 133.507 560.084 133.507 561.354C133.507 562.596 134.452 563.433 135.965 563.433C138.153 563.433 139.827 562.272 139.827 560.543V559.301ZM144.332 565L148.411 558.194L144.494 552.144H146.871L150.139 557.41H152.354V552.144H154.407V557.41H156.621L159.89 552.144H162.266L158.323 558.221L162.455 565H159.971L156.621 559.247H154.407V565H152.354V559.247H150.139L146.817 565H144.332ZM165.071 565V552.144H167.232V557.41H174.092V552.144H176.253V565H174.092V559.409H167.232V565H165.071ZM191.228 559.031H181.613C181.721 561.921 183.153 563.406 185.421 563.406C187.474 563.406 188.582 562.245 189.014 561.003L190.931 561.408C190.391 563.596 188.473 565.27 185.421 565.27C182.045 565.27 179.533 563.055 179.533 558.572C179.533 554.088 182.234 551.873 185.61 551.873C188.987 551.873 191.255 554.115 191.255 557.897C191.255 558.356 191.255 558.788 191.228 559.031ZM185.61 553.71C183.504 553.71 182.045 554.925 181.694 557.329H189.203C189.149 555.277 187.879 553.71 185.61 553.71ZM194.349 565V552.144H196.51V557.41H203.37V552.144H205.531V565H203.37V559.409H196.51V565H194.349ZM211.917 565H209.594V552.144H211.674V562.218L218.129 552.144H220.506V565H218.427V554.871L211.917 565ZM230.06 550.685C227.413 550.685 226.224 549.308 226.17 547.228H227.98C228.115 548.416 228.709 549.118 230.06 549.118C231.383 549.118 231.95 548.416 232.085 547.228H233.895C233.814 549.308 232.68 550.685 230.06 550.685ZM226.873 565H224.55V552.144H226.63V562.218L233.085 552.144H235.462V565H233.382V554.871L226.873 565Z" fill="white"/>
<rect x="86" y="593.451" width="289.516" height="58.6065" rx="17" fill="white"/>
<path d="M123.019 631.154V614.154H125.169V621.579H134.569V614.154H136.719V631.154H134.569V623.579H125.169V631.154H123.019ZM147.668 631.154V629.754C146.918 630.729 145.693 631.404 143.993 631.404C141.393 631.404 139.768 630.104 139.768 627.879C139.768 625.404 141.543 624.379 144.293 624.279C145.518 624.229 146.693 624.279 147.618 624.304V623.279C147.618 621.529 146.618 620.729 145.093 620.729C143.368 620.729 142.443 621.704 142.068 622.929L140.193 622.554C140.718 620.354 142.418 619.004 145.093 619.004C147.743 619.004 149.543 620.279 149.543 623.204V631.154H147.668ZM147.618 625.879C146.618 625.829 145.468 625.829 144.343 625.879C142.643 625.954 141.768 626.604 141.768 627.779C141.768 628.929 142.643 629.704 144.043 629.704C146.068 629.704 147.618 628.629 147.618 627.029V625.879ZM159.372 631.154V626.379C158.772 626.604 157.722 626.829 156.622 626.829C153.647 626.829 152.022 625.654 152.022 623.054V619.254H154.022V622.829C154.022 624.479 155.097 625.104 156.847 625.104C157.897 625.104 158.672 624.954 159.372 624.679V619.254H161.372V631.154H159.372ZM172.029 631.154V629.754C171.279 630.729 170.054 631.404 168.354 631.404C165.754 631.404 164.129 630.104 164.129 627.879C164.129 625.404 165.904 624.379 168.654 624.279C169.879 624.229 171.054 624.279 171.979 624.304V623.279C171.979 621.529 170.979 620.729 169.454 620.729C167.729 620.729 166.804 621.704 166.429 622.929L164.554 622.554C165.079 620.354 166.779 619.004 169.454 619.004C172.104 619.004 173.904 620.279 173.904 623.204V631.154H172.029ZM171.979 625.879C170.979 625.829 169.829 625.829 168.704 625.879C167.004 625.954 166.129 626.604 166.129 627.779C166.129 628.929 167.004 629.704 168.404 629.704C170.429 629.704 171.979 628.629 171.979 627.029V625.879ZM175.612 621.104V619.254H186.362V621.104H181.987V631.154H179.987V621.104H175.612ZM188.505 631.154V619.254H190.505V623.354H193.605C196.43 623.354 197.855 624.704 197.855 627.129C197.855 629.654 196.53 631.154 193.555 631.154H188.505ZM193.605 625.154H190.505V629.354H193.58C195.405 629.354 195.905 628.454 195.905 627.154C195.905 625.829 195.405 625.154 193.605 625.154ZM204.17 621.104V619.254H214.92V621.104H210.545V631.154H208.545V621.104H204.17ZM217.064 636.004V619.254H219.064V620.954C219.914 619.654 221.514 619.004 223.139 619.004C226.064 619.004 228.439 621.104 228.439 625.079C228.439 629.029 226.214 631.404 222.839 631.404C221.264 631.404 219.939 630.854 219.064 629.854V636.004H217.064ZM219.064 626.179C219.064 628.354 220.814 629.629 222.839 629.629C225.039 629.629 226.439 627.854 226.439 625.154C226.439 622.529 225.064 620.779 222.789 620.779C220.939 620.779 219.064 622.154 219.064 624.754V626.179ZM241.2 625.629H232.3C232.4 628.304 233.725 629.679 235.825 629.679C237.725 629.679 238.75 628.604 239.15 627.454L240.925 627.829C240.425 629.854 238.65 631.404 235.825 631.404C232.7 631.404 230.375 629.354 230.375 625.204C230.375 621.054 232.875 619.004 236 619.004C239.125 619.004 241.225 621.079 241.225 624.579C241.225 625.004 241.225 625.404 241.2 625.629ZM236 620.704C234.05 620.704 232.7 621.829 232.375 624.054H239.325C239.275 622.154 238.1 620.704 236 620.704ZM243.721 631.154V619.254H245.721V624.129H252.071V619.254H254.071V631.154H252.071V625.979H245.721V631.154H243.721ZM259.614 631.154H257.464V619.254H259.389V628.579L265.364 619.254H267.564V631.154H265.639V621.779L259.614 631.154ZM270.938 636.004V619.254H272.938V620.954C273.788 619.654 275.388 619.004 277.013 619.004C279.938 619.004 282.313 621.104 282.313 625.079C282.313 629.029 280.088 631.404 276.713 631.404C275.138 631.404 273.813 630.854 272.938 629.854V636.004H270.938ZM272.938 626.179C272.938 628.354 274.688 629.629 276.713 629.629C278.913 629.629 280.313 627.854 280.313 625.154C280.313 622.529 278.938 620.779 276.663 620.779C274.813 620.779 272.938 622.154 272.938 624.754V626.179ZM289.975 631.404C286.675 631.404 284.25 629.229 284.25 625.179C284.25 621.154 286.6 619.004 289.975 619.004C293.325 619.004 295.575 621.154 295.575 625.179C295.575 629.154 293.325 631.404 289.975 631.404ZM289.975 629.629C292.375 629.629 293.575 627.904 293.575 625.179C293.575 622.429 292.375 620.779 289.975 620.779C287.6 620.779 286.25 622.404 286.25 625.179C286.25 627.904 287.675 629.629 289.975 629.629ZM298.23 631.154V619.254H303.38C306.13 619.254 307.455 620.379 307.455 622.379C307.455 623.579 306.98 624.679 305.755 625.029C307.13 625.329 307.78 626.454 307.78 627.779C307.78 629.804 306.58 631.154 303.73 631.154H298.23ZM303.455 620.954H300.18V624.304H303.605C304.98 624.304 305.58 623.704 305.58 622.604C305.58 621.529 304.955 620.954 303.455 620.954ZM303.73 625.929H300.18V629.454H303.755C305.255 629.454 305.88 628.829 305.88 627.704C305.88 626.529 305.205 625.929 303.73 625.929ZM310.41 631.154V619.254H312.41V624.129H314.435L317.985 619.254H320.31L316.06 624.929L320.51 631.154H318.11L314.41 625.829H312.41V631.154H310.41ZM327.22 632.979C326.32 635.254 325.22 636.004 323.395 636.004H322.245V634.154H322.995C324.12 634.154 324.945 633.729 325.495 632.404L326.02 631.104L320.97 619.254H323.17L327.07 628.679L330.57 619.254H332.645L327.22 632.979Z" fill="#5EB5F2"/>
<g filter="url(#filter0_bi_1550_133)">
<path d="M956.881 299.68C954.145 290.467 959.396 280.78 968.609 278.044L1335.32 169.148C1344.53 166.412 1354.22 171.663 1356.95 180.876L1425.42 411.447C1428.16 420.66 1422.91 430.347 1413.7 433.083L1046.99 541.979C1037.77 544.715 1028.09 539.464 1025.35 530.251L956.881 299.68Z" fill="#00D1FF"/>
</g>
<g filter="url(#filter1_bi_1550_133)">
<path d="M1252.61 218.286C1245.69 214.581 1238.15 212.183 1230.42 210.874C1214.85 208.122 1198.88 210.266 1184.5 216.858C1182.13 217.942 1179.25 217.544 1177.26 215.866V215.866C1176.16 214.911 1174.26 212.712 1172.59 211.42L1168.29 208.548C1166.24 206.923 1164.04 205.595 1161.71 204.357C1161.31 204.148 1160.98 203.847 1160.65 203.548C1160.59 203.495 1160.53 203.442 1160.47 203.388C1160.25 203.212 1159.99 203.109 1159.71 203.063V203.063C1159.51 203.028 1159.31 202.961 1159.13 202.864C1152.39 199.252 1145.23 196.687 1137.65 195.168L1136.3 194.94C1133.28 194.428 1130.24 194.099 1127.15 193.972C1126.31 193.938 1125.47 193.862 1124.64 193.721L1124.41 193.683C1120.66 193.539 1116.85 193.776 1113.09 194.4C1064.83 201.622 1040.13 248.494 1046.63 294.22C1050.72 317.717 1059.95 339.966 1073.57 359.277C1093.56 386.36 1116.23 411.124 1141.33 433.275L1141.46 433.388C1143.13 434.86 1145.49 435.273 1147.56 434.455V434.455C1178.48 421.664 1207.9 405.717 1235.44 386.807C1254.77 373.075 1270.82 354.979 1282.29 334.117C1303.25 293.041 1295.35 240.65 1252.61 218.286Z" fill="#B2E0FF"/>
<path d="M1252.61 218.286C1245.69 214.581 1238.15 212.183 1230.42 210.874C1214.85 208.122 1198.88 210.266 1184.5 216.858C1182.13 217.942 1179.25 217.544 1177.26 215.866V215.866C1176.16 214.911 1174.26 212.712 1172.59 211.42L1168.29 208.548C1166.24 206.923 1164.04 205.595 1161.71 204.357C1161.31 204.148 1160.98 203.847 1160.65 203.548C1160.59 203.495 1160.53 203.442 1160.47 203.388C1160.25 203.212 1159.99 203.109 1159.71 203.063V203.063C1159.51 203.028 1159.31 202.961 1159.13 202.864C1152.39 199.252 1145.23 196.687 1137.65 195.168L1136.3 194.94C1133.28 194.428 1130.24 194.099 1127.15 193.972C1126.31 193.938 1125.47 193.862 1124.64 193.721L1124.41 193.683C1120.66 193.539 1116.85 193.776 1113.09 194.4C1064.83 201.622 1040.13 248.494 1046.63 294.22C1050.72 317.717 1059.95 339.966 1073.57 359.277C1093.56 386.36 1116.23 411.124 1141.33 433.275L1141.46 433.388C1143.13 434.86 1145.49 435.273 1147.56 434.455V434.455C1178.48 421.664 1207.9 405.717 1235.44 386.807C1254.77 373.075 1270.82 354.979 1282.29 334.117C1303.25 293.041 1295.35 240.65 1252.61 218.286Z" fill="#B2E0FF"/>
</g>
<g filter="url(#filter2_bi_1550_133)">
<path d="M792.793 458.444C790.305 449.16 795.814 439.618 805.098 437.131L1202.31 330.699C1211.59 328.212 1221.13 333.721 1223.62 343.004L1276.77 541.369C1279.26 550.653 1273.75 560.195 1264.47 562.682L867.257 669.114C857.974 671.601 848.432 666.092 845.944 656.809L792.793 458.444Z" fill="#5EB6F2"/>
</g>
<path fill-rule="evenodd" clip-rule="evenodd" d="M962.48 623.62L1009.48 611.027L957.278 416.335L910.311 428.92L962.48 623.62ZM1059.83 597.535L1011.55 610.472L959.349 415.78L1007.66 402.835L1059.83 597.535ZM908.239 429.475L960.409 624.175L913.654 636.703L861.502 441.998L908.239 429.475ZM859.43 442.553L911.583 637.258L889.641 643.137C875.532 646.917 861.03 638.545 857.25 624.436L818.77 480.828C814.99 466.719 823.362 452.217 837.471 448.437L859.43 442.553ZM1212.31 375.378L1250.79 518.987C1254.57 533.095 1246.2 547.597 1232.09 551.378L1210.39 557.193L1158.08 362.531L1179.92 356.677C1194.03 352.897 1208.53 361.27 1212.31 375.378ZM1161.32 570.34L1208.32 557.748L1156 363.086L1109.15 375.64L1161.32 570.34ZM1107.08 376.195L1159.25 570.895L1110.97 583.832L1058.78 389.138L1107.08 376.195ZM1056.71 389.693L1108.9 584.387L1061.9 596.98L1009.73 402.28L1056.71 389.693ZM1159.81 572.966L1062.46 599.051L1060.39 599.606L890.196 645.208C874.943 649.295 859.265 640.244 855.179 624.991L816.699 481.383C812.612 466.13 821.663 450.453 836.916 446.366L907.684 427.403L909.756 426.848L1179.37 354.606C1194.62 350.519 1210.3 359.571 1214.38 374.823L1252.86 518.432C1256.95 533.684 1247.9 549.362 1232.65 553.449L1161.88 572.411L1159.81 572.966Z" fill="#A6BFFF"/>
<g filter="url(#filter3_b_1550_133)">
<g filter="url(#filter4_bi_1550_133)">
<path d="M1033.59 429.188C1034.82 433.763 1032.1 438.467 1027.53 439.693L876.554 480.146C871.978 481.372 867.275 478.657 866.049 474.081V474.081C864.823 469.505 867.538 464.802 872.114 463.576L1023.09 423.122C1027.66 421.896 1032.37 424.612 1033.59 429.188V429.188Z" fill="white" fill-opacity="0.9"/>
</g>
</g>
<g filter="url(#filter5_b_1550_133)">
<g filter="url(#filter6_bi_1550_133)">
<path d="M1141.89 435.686C1143.12 440.261 1140.4 444.965 1135.83 446.191L885.396 513.293C880.82 514.52 876.117 511.804 874.891 507.228V507.228C873.665 502.653 876.38 497.949 880.956 496.723L1131.39 429.62C1135.96 428.394 1140.67 431.11 1141.89 435.686V435.686Z" fill="white" fill-opacity="0.9"/>
</g>
</g>
<g filter="url(#filter7_b_1550_133)">
<g filter="url(#filter8_bi_1550_133)">
<path d="M1084.49 486.586C1085.72 491.162 1083 495.865 1078.43 497.091L894.362 546.411C889.787 547.637 885.083 544.922 883.857 540.346V540.346C882.631 535.77 885.347 531.067 889.922 529.841L1073.99 480.521C1078.56 479.295 1083.27 482.01 1084.49 486.586V486.586Z" fill="white" fill-opacity="0.9"/>
</g>
</g>
<g filter="url(#filter9_b_1550_133)">
<g filter="url(#filter10_bi_1550_133)">
<path d="M960.81 555.246C962.036 559.822 959.32 564.525 954.745 565.751L903.235 579.553C898.659 580.779 893.956 578.064 892.73 573.488V573.488C891.504 568.912 894.219 564.209 898.795 562.983L950.305 549.181C954.88 547.955 959.584 550.67 960.81 555.246V555.246Z" fill="white" fill-opacity="0.9"/>
</g>
</g>
<g filter="url(#filter11_b_1550_133)">
<g filter="url(#filter12_bi_1550_133)">
<path d="M1019.4 575.07C1020.63 579.646 1017.91 584.349 1013.34 585.575L912.566 612.577C907.99 613.803 903.287 611.087 902.061 606.511V606.511C900.835 601.936 903.55 597.232 908.126 596.006L1008.9 569.005C1013.47 567.779 1018.17 570.495 1019.4 575.07V575.07Z" fill="white" fill-opacity="0.9"/>
</g>
</g>
<path d="M691.695 490.216L775.306 437.606L692.274 337.595L878.342 397.409L833.382 321.664" stroke="white" stroke-width="2.14434" stroke-linejoin="bevel"/>
<path d="M758.731 562.393L773.17 475.881" stroke="white" stroke-width="2.14434"/>
<path d="M1358.1 92.2315L1380.21 188.509L1502 143.075L1384.21 299.037L1470.54 281.55" stroke="white" stroke-width="2.14434" stroke-linejoin="bevel"/>
<path d="M1267.86 131.734L1344.78 173.877" stroke="white" stroke-width="2.14434"/>
<rect width="1440" height="759" fill="url(#paint1_linear_1550_133)"/>
<g filter="url(#filter13_bi_1550_133)">
<path d="M956.881 299.68C954.145 290.467 959.396 280.78 968.609 278.044L1335.32 169.148C1344.53 166.412 1354.22 171.663 1356.95 180.876L1425.42 411.447C1428.16 420.66 1422.91 430.347 1413.7 433.083L1046.99 541.979C1037.77 544.715 1028.09 539.464 1025.35 530.251L956.881 299.68Z" fill="#00D1FF"/>
</g>
<g filter="url(#filter14_bi_1550_133)">
<path d="M1252.61 218.286C1245.69 214.581 1238.15 212.183 1230.42 210.874C1214.85 208.122 1198.88 210.266 1184.5 216.858C1182.13 217.942 1179.25 217.544 1177.26 215.866V215.866C1176.16 214.911 1174.26 212.712 1172.59 211.42L1168.29 208.548C1166.24 206.923 1164.04 205.595 1161.71 204.357C1161.31 204.148 1160.98 203.847 1160.65 203.548C1160.59 203.495 1160.53 203.442 1160.47 203.388C1160.25 203.212 1159.99 203.109 1159.71 203.063V203.063C1159.51 203.028 1159.31 202.961 1159.13 202.864C1152.39 199.252 1145.23 196.687 1137.65 195.168L1136.3 194.94C1133.28 194.428 1130.24 194.099 1127.15 193.972C1126.31 193.938 1125.47 193.862 1124.64 193.721L1124.41 193.683C1120.66 193.539 1116.85 193.776 1113.09 194.4C1064.83 201.622 1040.13 248.494 1046.63 294.22C1050.72 317.717 1059.95 339.966 1073.57 359.277C1093.56 386.36 1116.23 411.124 1141.33 433.275L1141.46 433.388C1143.13 434.86 1145.49 435.273 1147.56 434.455V434.455C1178.48 421.664 1207.9 405.717 1235.44 386.807C1254.77 373.075 1270.82 354.979 1282.29 334.117C1303.25 293.041 1295.35 240.65 1252.61 218.286Z" fill="#B2E0FF"/>
<path d="M1252.61 218.286C1245.69 214.581 1238.15 212.183 1230.42 210.874C1214.85 208.122 1198.88 210.266 1184.5 216.858C1182.13 217.942 1179.25 217.544 1177.26 215.866V215.866C1176.16 214.911 1174.26 212.712 1172.59 211.42L1168.29 208.548C1166.24 206.923 1164.04 205.595 1161.71 204.357C1161.31 204.148 1160.98 203.847 1160.65 203.548C1160.59 203.495 1160.53 203.442 1160.47 203.388C1160.25 203.212 1159.99 203.109 1159.71 203.063V203.063C1159.51 203.028 1159.31 202.961 1159.13 202.864C1152.39 199.252 1145.23 196.687 1137.65 195.168L1136.3 194.94C1133.28 194.428 1130.24 194.099 1127.15 193.972C1126.31 193.938 1125.47 193.862 1124.64 193.721L1124.41 193.683C1120.66 193.539 1116.85 193.776 1113.09 194.4C1064.83 201.622 1040.13 248.494 1046.63 294.22C1050.72 317.717 1059.95 339.966 1073.57 359.277C1093.56 386.36 1116.23 411.124 1141.33 433.275L1141.46 433.388C1143.13 434.86 1145.49 435.273 1147.56 434.455V434.455C1178.48 421.664 1207.9 405.717 1235.44 386.807C1254.77 373.075 1270.82 354.979 1282.29 334.117C1303.25 293.041 1295.35 240.65 1252.61 218.286Z" fill="#B2E0FF"/>
</g>
<g filter="url(#filter15_bi_1550_133)">
<path d="M792.793 458.444C790.305 449.16 795.814 439.618 805.098 437.131L1202.31 330.699C1211.59 328.212 1221.13 333.721 1223.62 343.004L1276.77 541.369C1279.26 550.653 1273.75 560.195 1264.47 562.682L867.257 669.114C857.974 671.601 848.432 666.092 845.944 656.809L792.793 458.444Z" fill="#5EB6F2"/>
</g>
<path fill-rule="evenodd" clip-rule="evenodd" d="M962.48 623.62L1009.48 611.027L957.278 416.335L910.311 428.92L962.48 623.62ZM1059.83 597.535L1011.55 610.472L959.349 415.78L1007.66 402.835L1059.83 597.535ZM908.239 429.475L960.409 624.175L913.654 636.703L861.502 441.998L908.239 429.475ZM859.43 442.553L911.583 637.258L889.641 643.137C875.532 646.917 861.03 638.545 857.25 624.436L818.77 480.828C814.99 466.719 823.362 452.217 837.471 448.437L859.43 442.553ZM1212.31 375.378L1250.79 518.987C1254.57 533.095 1246.2 547.597 1232.09 551.378L1210.39 557.193L1158.08 362.531L1179.92 356.677C1194.03 352.897 1208.53 361.27 1212.31 375.378ZM1161.32 570.34L1208.32 557.748L1156 363.086L1109.15 375.64L1161.32 570.34ZM1107.08 376.195L1159.25 570.895L1110.97 583.832L1058.78 389.138L1107.08 376.195ZM1056.71 389.693L1108.9 584.387L1061.9 596.98L1009.73 402.28L1056.71 389.693ZM1159.81 572.966L1062.46 599.051L1060.39 599.606L890.196 645.208C874.943 649.295 859.265 640.244 855.179 624.991L816.699 481.383C812.612 466.13 821.663 450.453 836.916 446.366L907.684 427.403L909.756 426.848L1179.37 354.606C1194.62 350.519 1210.3 359.571 1214.38 374.823L1252.86 518.432C1256.95 533.684 1247.9 549.362 1232.65 553.449L1161.88 572.411L1159.81 572.966Z" fill="#A6BFFF"/>
<g filter="url(#filter16_b_1550_133)">
<g filter="url(#filter17_bi_1550_133)">
<path d="M1033.59 429.188C1034.82 433.763 1032.1 438.467 1027.53 439.693L876.554 480.146C871.978 481.372 867.275 478.657 866.049 474.081V474.081C864.823 469.505 867.538 464.802 872.114 463.576L1023.09 423.122C1027.66 421.896 1032.37 424.612 1033.59 429.188V429.188Z" fill="white" fill-opacity="0.9"/>
</g>
</g>
<g filter="url(#filter18_b_1550_133)">
<g filter="url(#filter19_bi_1550_133)">
<path d="M1141.89 435.686C1143.12 440.261 1140.4 444.965 1135.83 446.191L885.396 513.293C880.82 514.52 876.117 511.804 874.891 507.228V507.228C873.665 502.653 876.38 497.949 880.956 496.723L1131.39 429.62C1135.96 428.394 1140.67 431.11 1141.89 435.686V435.686Z" fill="white" fill-opacity="0.9"/>
</g>
</g>
<g filter="url(#filter20_b_1550_133)">
<g filter="url(#filter21_bi_1550_133)">
<path d="M1084.49 486.586C1085.72 491.162 1083 495.865 1078.43 497.091L894.362 546.411C889.787 547.637 885.083 544.922 883.857 540.346V540.346C882.631 535.77 885.347 531.067 889.922 529.841L1073.99 480.521C1078.56 479.295 1083.27 482.01 1084.49 486.586V486.586Z" fill="white" fill-opacity="0.9"/>
</g>
</g>
<g filter="url(#filter22_b_1550_133)">
<g filter="url(#filter23_bi_1550_133)">
<path d="M960.81 555.246C962.036 559.822 959.32 564.525 954.745 565.751L903.235 579.553C898.659 580.779 893.956 578.064 892.73 573.488V573.488C891.504 568.912 894.219 564.209 898.795 562.983L950.305 549.181C954.88 547.955 959.584 550.67 960.81 555.246V555.246Z" fill="white" fill-opacity="0.9"/>
</g>
</g>
<g filter="url(#filter24_b_1550_133)">
<g filter="url(#filter25_bi_1550_133)">
<path d="M1019.4 575.07C1020.63 579.646 1017.91 584.349 1013.34 585.575L912.566 612.577C907.99 613.803 903.287 611.087 902.061 606.511V606.511C900.835 601.936 903.55 597.232 908.126 596.006L1008.9 569.005C1013.47 567.779 1018.17 570.495 1019.4 575.07V575.07Z" fill="white" fill-opacity="0.9"/>
</g>
</g>
<path d="M691.695 490.216L775.306 437.606L692.274 337.595L878.342 397.409L833.382 321.664" stroke="white" stroke-width="2.14434" stroke-linejoin="bevel"/>
<path d="M758.731 562.393L773.17 475.881" stroke="white" stroke-width="2.14434"/>
<path d="M1295.15 61.9873L1317.26 158.265L1439.05 112.831L1321.26 268.792L1407.59 251.306" stroke="white" stroke-width="2.14434" stroke-linejoin="bevel"/>
<path d="M1204.91 101.49L1281.83 143.633" stroke="white" stroke-width="2.14434"/>
<defs>
<filter id="filter0_bi_1550_133" x="953.836" y="166.104" width="474.633" height="378.92" filterUnits="userSpaceOnUse" color-interpolation-filters="sRGB">
<feFlood flood-opacity="0" result="BackgroundImageFix"/>
<feGaussianBlur in="BackgroundImageFix" stdDeviation="1.16013"/>
<feComposite in2="SourceAlpha" operator="in" result="effect1_backgroundBlur_1550_133"/>
<feBlend mode="normal" in="SourceGraphic" in2="effect1_backgroundBlur_1550_133" result="shape"/>
<feColorMatrix in="SourceAlpha" type="matrix" values="0 0 0 0 0 0 0 0 0 0 0 0 0 0 0 0 0 0 127 0" result="hardAlpha"/>
<feOffset/>
<feGaussianBlur stdDeviation="2.90032"/>
<feComposite in2="hardAlpha" operator="arithmetic" k2="-1" k3="1"/>
<feColorMatrix type="matrix" values="0 0 0 0 1 0 0 0 0 1 0 0 0 0 1 0 0 0 0.8 0"/>
<feBlend mode="normal" in2="shape" result="effect2_innerShadow_1550_133"/>
</filter>
<filter id="filter1_bi_1550_133" x="1043.29" y="191.322" width="252.47" height="245.867" filterUnits="userSpaceOnUse" color-interpolation-filters="sRGB">
<feFlood flood-opacity="0" result="BackgroundImageFix"/>
<feGaussianBlur in="BackgroundImageFix" stdDeviation="1.16013"/>
<feComposite in2="SourceAlpha" operator="in" result="effect1_backgroundBlur_1550_133"/>
<feBlend mode="normal" in="SourceGraphic" in2="effect1_backgroundBlur_1550_133" result="shape"/>
<feColorMatrix in="SourceAlpha" type="matrix" values="0 0 0 0 0 0 0 0 0 0 0 0 0 0 0 0 0 0 127 0" result="hardAlpha"/>
<feOffset/>
<feGaussianBlur stdDeviation="2.90032"/>
<feComposite in2="hardAlpha" operator="arithmetic" k2="-1" k3="1"/>
<feColorMatrix type="matrix" values="0 0 0 0 1 0 0 0 0 1 0 0 0 0 1 0 0 0 0.8 0"/>
<feBlend mode="normal" in2="shape" result="effect2_innerShadow_1550_133"/>
</filter>
<filter id="filter2_bi_1550_133" x="789.875" y="327.781" width="489.812" height="344.25" filterUnits="userSpaceOnUse" color-interpolation-filters="sRGB">
<feFlood flood-opacity="0" result="BackgroundImageFix"/>
<feGaussianBlur in="BackgroundImageFix" stdDeviation="1.16013"/>
<feComposite in2="SourceAlpha" operator="in" result="effect1_backgroundBlur_1550_133"/>
<feBlend mode="normal" in="SourceGraphic" in2="effect1_backgroundBlur_1550_133" result="shape"/>
<feColorMatrix in="SourceAlpha" type="matrix" values="0 0 0 0 0 0 0 0 0 0 0 0 0 0 0 0 0 0 127 0" result="hardAlpha"/>
<feOffset/>
<feGaussianBlur stdDeviation="2.90032"/>
<feComposite in2="hardAlpha" operator="arithmetic" k2="-1" k3="1"/>
<feColorMatrix type="matrix" values="0 0 0 0 1 0 0 0 0 1 0 0 0 0 1 0 0 0 0.8 0"/>
<feBlend mode="normal" in2="shape" result="effect2_innerShadow_1550_133"/>
</filter>
<filter id="filter3_b_1550_133" x="857.178" y="414.251" width="185.287" height="74.7661" filterUnits="userSpaceOnUse" color-interpolation-filters="sRGB">
<feFlood flood-opacity="0" result="BackgroundImageFix"/>
<feGaussianBlur in="BackgroundImageFix" stdDeviation="4.28869"/>
<feComposite in2="SourceAlpha" operator="in" result="effect1_backgroundBlur_1550_133"/>
<feBlend mode="normal" in="SourceGraphic" in2="effect1_backgroundBlur_1550_133" result="shape"/>
</filter>
<filter id="filter4_bi_1550_133" x="861.466" y="418.539" width="176.71" height="66.1887" filterUnits="userSpaceOnUse" color-interpolation-filters="sRGB">
<feFlood flood-opacity="0" result="BackgroundImageFix"/>
<feGaussianBlur in="BackgroundImageFix" stdDeviation="2.14434"/>
<feComposite in2="SourceAlpha" operator="in" result="effect1_backgroundBlur_1550_133"/>
<feBlend mode="normal" in="SourceGraphic" in2="effect1_backgroundBlur_1550_133" result="shape"/>
<feColorMatrix in="SourceAlpha" type="matrix" values="0 0 0 0 0 0 0 0 0 0 0 0 0 0 0 0 0 0 127 0" result="hardAlpha"/>
<feOffset/>
<feGaussianBlur stdDeviation="2.85913"/>
<feComposite in2="hardAlpha" operator="arithmetic" k2="-1" k3="1"/>
<feColorMatrix type="matrix" values="0 0 0 0 1 0 0 0 0 1 0 0 0 0 1 0 0 0 0.8 0"/>
<feBlend mode="normal" in2="shape" result="effect2_innerShadow_1550_133"/>
</filter>
<filter id="filter5_b_1550_133" x="866.019" y="420.749" width="284.745" height="101.416" filterUnits="userSpaceOnUse" color-interpolation-filters="sRGB">
<feFlood flood-opacity="0" result="BackgroundImageFix"/>
<feGaussianBlur in="BackgroundImageFix" stdDeviation="4.28869"/>
<feComposite in2="SourceAlpha" operator="in" result="effect1_backgroundBlur_1550_133"/>
<feBlend mode="normal" in="SourceGraphic" in2="effect1_backgroundBlur_1550_133" result="shape"/>
</filter>
<filter id="filter6_bi_1550_133" x="870.308" y="425.037" width="276.167" height="92.8391" filterUnits="userSpaceOnUse" color-interpolation-filters="sRGB">
<feFlood flood-opacity="0" result="BackgroundImageFix"/>
<feGaussianBlur in="BackgroundImageFix" stdDeviation="2.14434"/>
<feComposite in2="SourceAlpha" operator="in" result="effect1_backgroundBlur_1550_133"/>
<feBlend mode="normal" in="SourceGraphic" in2="effect1_backgroundBlur_1550_133" result="shape"/>
<feColorMatrix in="SourceAlpha" type="matrix" values="0 0 0 0 0 0 0 0 0 0 0 0 0 0 0 0 0 0 127 0" result="hardAlpha"/>
<feOffset/>
<feGaussianBlur stdDeviation="2.85913"/>
<feComposite in2="hardAlpha" operator="arithmetic" k2="-1" k3="1"/>
<feColorMatrix type="matrix" values="0 0 0 0 1 0 0 0 0 1 0 0 0 0 1 0 0 0 0.8 0"/>
<feBlend mode="normal" in2="shape" result="effect2_innerShadow_1550_133"/>
</filter>
<filter id="filter7_b_1550_133" x="874.986" y="471.649" width="218.378" height="83.6333" filterUnits="userSpaceOnUse" color-interpolation-filters="sRGB">
<feFlood flood-opacity="0" result="BackgroundImageFix"/>
<feGaussianBlur in="BackgroundImageFix" stdDeviation="4.28869"/>
<feComposite in2="SourceAlpha" operator="in" result="effect1_backgroundBlur_1550_133"/>
<feBlend mode="normal" in="SourceGraphic" in2="effect1_backgroundBlur_1550_133" result="shape"/>
</filter>
<filter id="filter8_bi_1550_133" x="879.274" y="475.938" width="209.801" height="75.0559" filterUnits="userSpaceOnUse" color-interpolation-filters="sRGB">
<feFlood flood-opacity="0" result="BackgroundImageFix"/>
<feGaussianBlur in="BackgroundImageFix" stdDeviation="2.14434"/>
<feComposite in2="SourceAlpha" operator="in" result="effect1_backgroundBlur_1550_133"/>
<feBlend mode="normal" in="SourceGraphic" in2="effect1_backgroundBlur_1550_133" result="shape"/>
<feColorMatrix in="SourceAlpha" type="matrix" values="0 0 0 0 0 0 0 0 0 0 0 0 0 0 0 0 0 0 127 0" result="hardAlpha"/>
<feOffset/>
<feGaussianBlur stdDeviation="2.85913"/>
<feComposite in2="hardAlpha" operator="arithmetic" k2="-1" k3="1"/>
<feColorMatrix type="matrix" values="0 0 0 0 1 0 0 0 0 1 0 0 0 0 1 0 0 0 0.8 0"/>
<feBlend mode="normal" in2="shape" result="effect2_innerShadow_1550_133"/>
</filter>
<filter id="filter9_b_1550_133" x="883.858" y="540.309" width="85.8237" height="48.1157" filterUnits="userSpaceOnUse" color-interpolation-filters="sRGB">
<feFlood flood-opacity="0" result="BackgroundImageFix"/>
<feGaussianBlur in="BackgroundImageFix" stdDeviation="4.28869"/>
<feComposite in2="SourceAlpha" operator="in" result="effect1_backgroundBlur_1550_133"/>
<feBlend mode="normal" in="SourceGraphic" in2="effect1_backgroundBlur_1550_133" result="shape"/>
</filter>
<filter id="filter10_bi_1550_133" x="888.146" y="544.598" width="77.2463" height="39.5383" filterUnits="userSpaceOnUse" color-interpolation-filters="sRGB">
<feFlood flood-opacity="0" result="BackgroundImageFix"/>
<feGaussianBlur in="BackgroundImageFix" stdDeviation="2.14434"/>
<feComposite in2="SourceAlpha" operator="in" result="effect1_backgroundBlur_1550_133"/>
<feBlend mode="normal" in="SourceGraphic" in2="effect1_backgroundBlur_1550_133" result="shape"/>
<feColorMatrix in="SourceAlpha" type="matrix" values="0 0 0 0 0 0 0 0 0 0 0 0 0 0 0 0 0 0 127 0" result="hardAlpha"/>
<feOffset/>
<feGaussianBlur stdDeviation="2.85913"/>
<feComposite in2="hardAlpha" operator="arithmetic" k2="-1" k3="1"/>
<feColorMatrix type="matrix" values="0 0 0 0 1 0 0 0 0 1 0 0 0 0 1 0 0 0 0.8 0"/>
<feBlend mode="normal" in2="shape" result="effect2_innerShadow_1550_133"/>
</filter>
<filter id="filter11_b_1550_133" x="893.189" y="560.134" width="135.083" height="61.3149" filterUnits="userSpaceOnUse" color-interpolation-filters="sRGB">
<feFlood flood-opacity="0" result="BackgroundImageFix"/>
<feGaussianBlur in="BackgroundImageFix" stdDeviation="4.28869"/>
<feComposite in2="SourceAlpha" operator="in" result="effect1_backgroundBlur_1550_133"/>
<feBlend mode="normal" in="SourceGraphic" in2="effect1_backgroundBlur_1550_133" result="shape"/>
</filter>
<filter id="filter12_bi_1550_133" x="897.477" y="564.422" width="126.506" height="52.7375" filterUnits="userSpaceOnUse" color-interpolation-filters="sRGB">
<feFlood flood-opacity="0" result="BackgroundImageFix"/>
<feGaussianBlur in="BackgroundImageFix" stdDeviation="2.14434"/>
<feComposite in2="SourceAlpha" operator="in" result="effect1_backgroundBlur_1550_133"/>
<feBlend mode="normal" in="SourceGraphic" in2="effect1_backgroundBlur_1550_133" result="shape"/>
<feColorMatrix in="SourceAlpha" type="matrix" values="0 0 0 0 0 0 0 0 0 0 0 0 0 0 0 0 0 0 127 0" result="hardAlpha"/>
<feOffset/>
<feGaussianBlur stdDeviation="2.85913"/>
<feComposite in2="hardAlpha" operator="arithmetic" k2="-1" k3="1"/>
<feColorMatrix type="matrix" values="0 0 0 0 1 0 0 0 0 1 0 0 0 0 1 0 0 0 0.8 0"/>
<feBlend mode="normal" in2="shape" result="effect2_innerShadow_1550_133"/>
</filter>
<filter id="filter13_bi_1550_133" x="953.836" y="166.104" width="474.633" height="378.92" filterUnits="userSpaceOnUse" color-interpolation-filters="sRGB">
<feFlood flood-opacity="0" result="BackgroundImageFix"/>
<feGaussianBlur in="BackgroundImageFix" stdDeviation="1.16013"/>
<feComposite in2="SourceAlpha" operator="in" result="effect1_backgroundBlur_1550_133"/>
<feBlend mode="normal" in="SourceGraphic" in2="effect1_backgroundBlur_1550_133" result="shape"/>
<feColorMatrix in="SourceAlpha" type="matrix" values="0 0 0 0 0 0 0 0 0 0 0 0 0 0 0 0 0 0 127 0" result="hardAlpha"/>
<feOffset/>
<feGaussianBlur stdDeviation="2.90032"/>
<feComposite in2="hardAlpha" operator="arithmetic" k2="-1" k3="1"/>
<feColorMatrix type="matrix" values="0 0 0 0 1 0 0 0 0 1 0 0 0 0 1 0 0 0 0.8 0"/>
<feBlend mode="normal" in2="shape" result="effect2_innerShadow_1550_133"/>
</filter>
<filter id="filter14_bi_1550_133" x="1043.29" y="191.322" width="252.47" height="245.867" filterUnits="userSpaceOnUse" color-interpolation-filters="sRGB">
<feFlood flood-opacity="0" result="BackgroundImageFix"/>
<feGaussianBlur in="BackgroundImageFix" stdDeviation="1.16013"/>
<feComposite in2="SourceAlpha" operator="in" result="effect1_backgroundBlur_1550_133"/>
<feBlend mode="normal" in="SourceGraphic" in2="effect1_backgroundBlur_1550_133" result="shape"/>
<feColorMatrix in="SourceAlpha" type="matrix" values="0 0 0 0 0 0 0 0 0 0 0 0 0 0 0 0 0 0 127 0" result="hardAlpha"/>
<feOffset/>
<feGaussianBlur stdDeviation="2.90032"/>
<feComposite in2="hardAlpha" operator="arithmetic" k2="-1" k3="1"/>
<feColorMatrix type="matrix" values="0 0 0 0 1 0 0 0 0 1 0 0 0 0 1 0 0 0 0.8 0"/>
<feBlend mode="normal" in2="shape" result="effect2_innerShadow_1550_133"/>
</filter>
<filter id="filter15_bi_1550_133" x="789.875" y="327.781" width="489.812" height="344.25" filterUnits="userSpaceOnUse" color-interpolation-filters="sRGB">
<feFlood flood-opacity="0" result="BackgroundImageFix"/>
<feGaussianBlur in="BackgroundImageFix" stdDeviation="1.16013"/>
<feComposite in2="SourceAlpha" operator="in" result="effect1_backgroundBlur_1550_133"/>
<feBlend mode="normal" in="SourceGraphic" in2="effect1_backgroundBlur_1550_133" result="shape"/>
<feColorMatrix in="SourceAlpha" type="matrix" values="0 0 0 0 0 0 0 0 0 0 0 0 0 0 0 0 0 0 127 0" result="hardAlpha"/>
<feOffset/>
<feGaussianBlur stdDeviation="2.90032"/>
<feComposite in2="hardAlpha" operator="arithmetic" k2="-1" k3="1"/>
<feColorMatrix type="matrix" values="0 0 0 0 1 0 0 0 0 1 0 0 0 0 1 0 0 0 0.8 0"/>
<feBlend mode="normal" in2="shape" result="effect2_innerShadow_1550_133"/>
</filter>
<filter id="filter16_b_1550_133" x="857.178" y="414.251" width="185.287" height="74.7661" filterUnits="userSpaceOnUse" color-interpolation-filters="sRGB">
<feFlood flood-opacity="0" result="BackgroundImageFix"/>
<feGaussianBlur in="BackgroundImageFix" stdDeviation="4.28869"/>
<feComposite in2="SourceAlpha" operator="in" result="effect1_backgroundBlur_1550_133"/>
<feBlend mode="normal" in="SourceGraphic" in2="effect1_backgroundBlur_1550_133" result="shape"/>
</filter>
<filter id="filter17_bi_1550_133" x="861.466" y="418.539" width="176.71" height="66.1887" filterUnits="userSpaceOnUse" color-interpolation-filters="sRGB">
<feFlood flood-opacity="0" result="BackgroundImageFix"/>
<feGaussianBlur in="BackgroundImageFix" stdDeviation="2.14434"/>
<feComposite in2="SourceAlpha" operator="in" result="effect1_backgroundBlur_1550_133"/>
<feBlend mode="normal" in="SourceGraphic" in2="effect1_backgroundBlur_1550_133" result="shape"/>
<feColorMatrix in="SourceAlpha" type="matrix" values="0 0 0 0 0 0 0 0 0 0 0 0 0 0 0 0 0 0 127 0" result="hardAlpha"/>
<feOffset/>
<feGaussianBlur stdDeviation="2.85913"/>
<feComposite in2="hardAlpha" operator="arithmetic" k2="-1" k3="1"/>
<feColorMatrix type="matrix" values="0 0 0 0 1 0 0 0 0 1 0 0 0 0 1 0 0 0 0.8 0"/>
<feBlend mode="normal" in2="shape" result="effect2_innerShadow_1550_133"/>
</filter>
<filter id="filter18_b_1550_133" x="866.019" y="420.749" width="284.745" height="101.416" filterUnits="userSpaceOnUse" color-interpolation-filters="sRGB">
<feFlood flood-opacity="0" result="BackgroundImageFix"/>
<feGaussianBlur in="BackgroundImageFix" stdDeviation="4.28869"/>
<feComposite in2="SourceAlpha" operator="in" result="effect1_backgroundBlur_1550_133"/>
<feBlend mode="normal" in="SourceGraphic" in2="effect1_backgroundBlur_1550_133" result="shape"/>
</filter>
<filter id="filter19_bi_1550_133" x="870.308" y="425.037" width="276.167" height="92.8391" filterUnits="userSpaceOnUse" color-interpolation-filters="sRGB">
<feFlood flood-opacity="0" result="BackgroundImageFix"/>
<feGaussianBlur in="BackgroundImageFix" stdDeviation="2.14434"/>
<feComposite in2="SourceAlpha" operator="in" result="effect1_backgroundBlur_1550_133"/>
<feBlend mode="normal" in="SourceGraphic" in2="effect1_backgroundBlur_1550_133" result="shape"/>
<feColorMatrix in="SourceAlpha" type="matrix" values="0 0 0 0 0 0 0 0 0 0 0 0 0 0 0 0 0 0 127 0" result="hardAlpha"/>
<feOffset/>
<feGaussianBlur stdDeviation="2.85913"/>
<feComposite in2="hardAlpha" operator="arithmetic" k2="-1" k3="1"/>
<feColorMatrix type="matrix" values="0 0 0 0 1 0 0 0 0 1 0 0 0 0 1 0 0 0 0.8 0"/>
<feBlend mode="normal" in2="shape" result="effect2_innerShadow_1550_133"/>
</filter>
<filter id="filter20_b_1550_133" x="874.986" y="471.649" width="218.378" height="83.6333" filterUnits="userSpaceOnUse" color-interpolation-filters="sRGB">
<feFlood flood-opacity="0" result="BackgroundImageFix"/>
<feGaussianBlur in="BackgroundImageFix" stdDeviation="4.28869"/>
<feComposite in2="SourceAlpha" operator="in" result="effect1_backgroundBlur_1550_133"/>
<feBlend mode="normal" in="SourceGraphic" in2="effect1_backgroundBlur_1550_133" result="shape"/>
</filter>
<filter id="filter21_bi_1550_133" x="879.274" y="475.938" width="209.801" height="75.0559" filterUnits="userSpaceOnUse" color-interpolation-filters="sRGB">
<feFlood flood-opacity="0" result="BackgroundImageFix"/>
<feGaussianBlur in="BackgroundImageFix" stdDeviation="2.14434"/>
<feComposite in2="SourceAlpha" operator="in" result="effect1_backgroundBlur_1550_133"/>
<feBlend mode="normal" in="SourceGraphic" in2="effect1_backgroundBlur_1550_133" result="shape"/>
<feColorMatrix in="SourceAlpha" type="matrix" values="0 0 0 0 0 0 0 0 0 0 0 0 0 0 0 0 0 0 127 0" result="hardAlpha"/>
<feOffset/>
<feGaussianBlur stdDeviation="2.85913"/>
<feComposite in2="hardAlpha" operator="arithmetic" k2="-1" k3="1"/>
<feColorMatrix type="matrix" values="0 0 0 0 1 0 0 0 0 1 0 0 0 0 1 0 0 0 0.8 0"/>
<feBlend mode="normal" in2="shape" result="effect2_innerShadow_1550_133"/>
</filter>
<filter id="filter22_b_1550_133" x="883.858" y="540.309" width="85.8237" height="48.1157" filterUnits="userSpaceOnUse" color-interpolation-filters="sRGB">
<feFlood flood-opacity="0" result="BackgroundImageFix"/>
<feGaussianBlur in="BackgroundImageFix" stdDeviation="4.28869"/>
<feComposite in2="SourceAlpha" operator="in" result="effect1_backgroundBlur_1550_133"/>
<feBlend mode="normal" in="SourceGraphic" in2="effect1_backgroundBlur_1550_133" result="shape"/>
</filter>
<filter id="filter23_bi_1550_133" x="888.146" y="544.598" width="77.2463" height="39.5383" filterUnits="userSpaceOnUse" color-interpolation-filters="sRGB">
<feFlood flood-opacity="0" result="BackgroundImageFix"/>
<feGaussianBlur in="BackgroundImageFix" stdDeviation="2.14434"/>
<feComposite in2="SourceAlpha" operator="in" result="effect1_backgroundBlur_1550_133"/>
<feBlend mode="normal" in="SourceGraphic" in2="effect1_backgroundBlur_1550_133" result="shape"/>
<feColorMatrix in="SourceAlpha" type="matrix" values="0 0 0 0 0 0 0 0 0 0 0 0 0 0 0 0 0 0 127 0" result="hardAlpha"/>
<feOffset/>
<feGaussianBlur stdDeviation="2.85913"/>
<feComposite in2="hardAlpha" operator="arithmetic" k2="-1" k3="1"/>
<feColorMatrix type="matrix" values="0 0 0 0 1 0 0 0 0 1 0 0 0 0 1 0 0 0 0.8 0"/>
<feBlend mode="normal" in2="shape" result="effect2_innerShadow_1550_133"/>
</filter>
<filter id="filter24_b_1550_133" x="893.189" y="560.134" width="135.083" height="61.3149" filterUnits="userSpaceOnUse" color-interpolation-filters="sRGB">
<feFlood flood-opacity="0" result="BackgroundImageFix"/>
<feGaussianBlur in="BackgroundImageFix" stdDeviation="4.28869"/>
<feComposite in2="SourceAlpha" operator="in" result="effect1_backgroundBlur_1550_133"/>
<feBlend mode="normal" in="SourceGraphic" in2="effect1_backgroundBlur_1550_133" result="shape"/>
</filter>
<filter id="filter25_bi_1550_133" x="897.477" y="564.422" width="126.506" height="52.7375" filterUnits="userSpaceOnUse" color-interpolation-filters="sRGB">
<feFlood flood-opacity="0" result="BackgroundImageFix"/>
<feGaussianBlur in="BackgroundImageFix" stdDeviation="2.14434"/>
<feComposite in2="SourceAlpha" operator="in" result="effect1_backgroundBlur_1550_133"/>
<feBlend mode="normal" in="SourceGraphic" in2="effect1_backgroundBlur_1550_133" result="shape"/>
<feColorMatrix in="SourceAlpha" type="matrix" values="0 0 0 0 0 0 0 0 0 0 0 0 0 0 0 0 0 0 127 0" result="hardAlpha"/>
<feOffset/>
<feGaussianBlur stdDeviation="2.85913"/>
<feComposite in2="hardAlpha" operator="arithmetic" k2="-1" k3="1"/>
<feColorMatrix type="matrix" values="0 0 0 0 1 0 0 0 0 1 0 0 0 0 1 0 0 0 0.8 0"/>
<feBlend mode="normal" in2="shape" result="effect2_innerShadow_1550_133"/>
</filter>
<linearGradient id="paint0_linear_1550_133" x1="1178.33" y1="518.058" x2="-62.5314" y2="-0.000119835" gradientUnits="userSpaceOnUse">
<stop stop-color="#5EB5F2"/>
<stop offset="1" stop-color="#91CFFB"/>
</linearGradient>
<linearGradient id="paint1_linear_1550_133" x1="1178.33" y1="518.058" x2="-62.5314" y2="-0.000119835" gradientUnits="userSpaceOnUse">
<stop stop-color="#5EB5F2"/>
<stop offset="1" stop-color="#91CFFB"/>
</linearGradient>
</defs>
</svg>
