<svg width="405" height="442" viewBox="0 0 405 442" fill="none" xmlns="http://www.w3.org/2000/svg">
<g clip-path="url(#clip0_1550_64)">
<rect width="405" height="442" rx="27" fill="white"/>
<rect width="672" height="628" fill="#9EB9FF"/>
<g clip-path="url(#clip1_1550_64)">
<rect y="-36" width="768" height="576" rx="48" fill="#EEF7FE"/>
<path d="M96 118.875V539.999" stroke="#22A6FF"/>
<path d="M288 88.2909V540.001" stroke="#22A6FF"/>
<path d="M192 184.262V540" stroke="#22A6FF"/>
<path d="M384 -36V540" stroke="#22A6FF"/>
<path d="M768 252L1.44839e-05 252" stroke="#22A6FF"/>
<path d="M768 156L0 156" stroke="#22A6FF"/>
<path d="M768 348L1.44839e-05 348" stroke="#22A6FF"/>
</g>
<g filter="url(#filter0_bi_1550_64)">
<path d="M148.158 367.664C156.194 367.664 162.708 374.179 162.708 382.215L162.708 440.419C162.708 448.455 156.194 454.97 148.158 454.97L119.056 454.97C111.019 454.97 104.505 448.455 104.505 440.419L104.505 382.215C104.505 374.179 111.019 367.664 119.056 367.664L148.158 367.664Z" fill="#00D1FF"/>
</g>
<g filter="url(#filter1_bi_1550_64)">
<path d="M206.361 295.039C214.397 295.039 220.912 301.554 220.912 309.59L220.912 455.1C220.912 463.136 214.397 469.651 206.361 469.651L177.259 469.651C169.223 469.651 162.708 463.136 162.708 455.1L162.708 309.59C162.708 301.554 169.223 295.039 177.259 295.039L206.361 295.039Z" fill="#5EB6F2"/>
</g>
<g filter="url(#filter2_bi_1550_64)">
<path d="M327.357 192.396C319.32 192.396 312.806 198.911 312.806 206.947L312.806 468.865C312.806 476.901 319.32 483.416 327.357 483.416L356.459 483.416C364.495 483.416 371.01 476.901 371.01 468.865L371.01 206.947C371.01 198.911 364.495 192.396 356.459 192.396L327.357 192.396Z" fill="#5EB6F2"/>
</g>
<g filter="url(#filter3_bi_1550_64)">
<path d="M269.153 343.15C261.116 343.15 254.602 349.665 254.602 357.701L254.602 445.007C254.602 453.043 261.116 459.558 269.153 459.558L298.254 459.558C306.291 459.558 312.805 453.043 312.805 445.007L312.805 357.701C312.805 349.665 306.291 343.15 298.254 343.15L269.153 343.15Z" fill="#00D1FF"/>
</g>
<path d="M175.805 271.826L157.498 273.312C155.759 273.454 154.343 274.769 154.074 276.493C153.839 278.006 154.54 279.511 155.849 280.303L198.99 306.413C200.335 307.227 202.037 307.154 203.307 306.226C204.576 305.299 205.164 303.7 204.798 302.172L193.048 253.133C192.692 251.644 191.471 250.518 189.959 250.283C188.234 250.014 186.551 250.963 185.887 252.577L178.903 269.564C178.378 270.84 177.181 271.715 175.805 271.826Z" fill="#262626"/>
<path d="M200.327 292.767C216.788 260.14 217.392 221.323 189.47 215.568C161.548 209.812 112.72 247.016 95.7531 308.804C89.8224 330.401 81.2616 388.088 103.167 386.429C125.073 384.77 129.178 246.329 59.1754 242.569C-10.8268 238.808 -69.6173 395.637 -26.7012 507.139" stroke="#262626" stroke-width="1.83525" stroke-linejoin="bevel"/>
</g>
<defs>
<filter id="filter0_bi_1550_64" x="102.564" y="365.724" width="62.0844" height="91.1869" filterUnits="userSpaceOnUse" color-interpolation-filters="sRGB">
<feFlood flood-opacity="0" result="BackgroundImageFix"/>
<feGaussianBlur in="BackgroundImageFix" stdDeviation="0.970065"/>
<feComposite in2="SourceAlpha" operator="in" result="effect1_backgroundBlur_1550_64"/>
<feBlend mode="normal" in="SourceGraphic" in2="effect1_backgroundBlur_1550_64" result="shape"/>
<feColorMatrix in="SourceAlpha" type="matrix" values="0 0 0 0 0 0 0 0 0 0 0 0 0 0 0 0 0 0 127 0" result="hardAlpha"/>
<feOffset/>
<feGaussianBlur stdDeviation="2.42516"/>
<feComposite in2="hardAlpha" operator="arithmetic" k2="-1" k3="1"/>
<feColorMatrix type="matrix" values="0 0 0 0 1 0 0 0 0 1 0 0 0 0 1 0 0 0 0.8 0"/>
<feBlend mode="normal" in2="shape" result="effect2_innerShadow_1550_64"/>
</filter>
<filter id="filter1_bi_1550_64" x="160.768" y="293.099" width="62.0844" height="178.492" filterUnits="userSpaceOnUse" color-interpolation-filters="sRGB">
<feFlood flood-opacity="0" result="BackgroundImageFix"/>
<feGaussianBlur in="BackgroundImageFix" stdDeviation="0.970065"/>
<feComposite in2="SourceAlpha" operator="in" result="effect1_backgroundBlur_1550_64"/>
<feBlend mode="normal" in="SourceGraphic" in2="effect1_backgroundBlur_1550_64" result="shape"/>
<feColorMatrix in="SourceAlpha" type="matrix" values="0 0 0 0 0 0 0 0 0 0 0 0 0 0 0 0 0 0 127 0" result="hardAlpha"/>
<feOffset/>
<feGaussianBlur stdDeviation="2.42516"/>
<feComposite in2="hardAlpha" operator="arithmetic" k2="-1" k3="1"/>
<feColorMatrix type="matrix" values="0 0 0 0 1 0 0 0 0 1 0 0 0 0 1 0 0 0 0.8 0"/>
<feBlend mode="normal" in2="shape" result="effect2_innerShadow_1550_64"/>
</filter>
<filter id="filter2_bi_1550_64" x="310.866" y="190.456" width="62.0844" height="294.9" filterUnits="userSpaceOnUse" color-interpolation-filters="sRGB">
<feFlood flood-opacity="0" result="BackgroundImageFix"/>
<feGaussianBlur in="BackgroundImageFix" stdDeviation="0.970065"/>
<feComposite in2="SourceAlpha" operator="in" result="effect1_backgroundBlur_1550_64"/>
<feBlend mode="normal" in="SourceGraphic" in2="effect1_backgroundBlur_1550_64" result="shape"/>
<feColorMatrix in="SourceAlpha" type="matrix" values="0 0 0 0 0 0 0 0 0 0 0 0 0 0 0 0 0 0 127 0" result="hardAlpha"/>
<feOffset/>
<feGaussianBlur stdDeviation="2.42516"/>
<feComposite in2="hardAlpha" operator="arithmetic" k2="-1" k3="1"/>
<feColorMatrix type="matrix" values="0 0 0 0 1 0 0 0 0 1 0 0 0 0 1 0 0 0 0.8 0"/>
<feBlend mode="normal" in2="shape" result="effect2_innerShadow_1550_64"/>
</filter>
<filter id="filter3_bi_1550_64" x="252.661" y="341.21" width="62.0844" height="120.288" filterUnits="userSpaceOnUse" color-interpolation-filters="sRGB">
<feFlood flood-opacity="0" result="BackgroundImageFix"/>
<feGaussianBlur in="BackgroundImageFix" stdDeviation="0.970065"/>
<feComposite in2="SourceAlpha" operator="in" result="effect1_backgroundBlur_1550_64"/>
<feBlend mode="normal" in="SourceGraphic" in2="effect1_backgroundBlur_1550_64" result="shape"/>
<feColorMatrix in="SourceAlpha" type="matrix" values="0 0 0 0 0 0 0 0 0 0 0 0 0 0 0 0 0 0 127 0" result="hardAlpha"/>
<feOffset/>
<feGaussianBlur stdDeviation="2.42516"/>
<feComposite in2="hardAlpha" operator="arithmetic" k2="-1" k3="1"/>
<feColorMatrix type="matrix" values="0 0 0 0 1 0 0 0 0 1 0 0 0 0 1 0 0 0 0.8 0"/>
<feBlend mode="normal" in2="shape" result="effect2_innerShadow_1550_64"/>
</filter>
<clipPath id="clip0_1550_64">
<rect width="405" height="442" rx="27" fill="white"/>
</clipPath>
<clipPath id="clip1_1550_64">
<rect y="-36" width="768" height="576" rx="48" fill="white"/>
</clipPath>
</defs>
</svg>
