<svg width="702" height="536" viewBox="0 0 702 536" fill="none" xmlns="http://www.w3.org/2000/svg">
<g filter="url(#filter0_bi_1560_57)">
<path d="M226.113 204.853C223.81 197.095 228.231 188.939 235.988 186.636L544.753 94.9465C552.511 92.6429 560.667 97.0641 562.97 104.821L620.62 298.959C622.924 306.716 618.503 314.872 610.745 317.176L301.98 408.865C294.223 411.169 286.067 406.747 283.763 398.99L226.113 204.853Z" fill="#00D1FF"/>
</g>
<g filter="url(#filter1_bi_1560_57)">
<path d="M475.115 136.319C469.285 133.199 462.94 131.18 456.43 130.078C443.32 127.761 429.876 129.566 417.766 135.116C415.774 136.029 413.345 135.694 411.67 134.281V134.281C410.744 133.477 409.147 131.625 407.739 130.538L404.115 128.12C402.39 126.752 400.542 125.633 398.575 124.59C398.244 124.415 397.962 124.161 397.685 123.91C397.636 123.865 397.584 123.82 397.529 123.775C397.348 123.627 397.125 123.54 396.894 123.501V123.501C396.724 123.472 396.559 123.415 396.406 123.333C390.727 120.292 384.701 118.133 378.32 116.854L377.185 116.661C374.641 116.231 372.08 115.953 369.476 115.847C368.768 115.818 368.063 115.754 367.365 115.636L367.175 115.603C364.011 115.482 360.804 115.682 357.637 116.207C317.006 122.288 296.208 161.754 301.684 200.254C305.127 220.038 312.899 238.771 324.369 255.032C341.195 277.835 360.283 298.686 381.421 317.336L381.529 317.431C382.937 318.671 384.921 319.019 386.666 318.33V318.33C412.7 307.56 437.464 294.133 460.656 278.211C476.931 266.649 490.443 251.412 500.104 233.847C517.752 199.261 511.103 155.149 475.115 136.319Z" fill="#B2E0FF"/>
<path d="M475.115 136.319C469.285 133.199 462.94 131.18 456.43 130.078C443.32 127.761 429.876 129.566 417.766 135.116C415.774 136.029 413.345 135.694 411.67 134.281V134.281C410.744 133.477 409.147 131.625 407.739 130.538L404.115 128.12C402.39 126.752 400.542 125.633 398.575 124.59C398.244 124.415 397.962 124.161 397.685 123.91C397.636 123.865 397.584 123.82 397.529 123.775C397.348 123.627 397.125 123.54 396.894 123.501V123.501C396.724 123.472 396.559 123.415 396.406 123.333C390.727 120.292 384.701 118.133 378.32 116.854L377.185 116.661C374.641 116.231 372.08 115.953 369.476 115.847C368.768 115.818 368.063 115.754 367.365 115.636L367.175 115.603C364.011 115.482 360.804 115.682 357.637 116.207C317.006 122.288 296.208 161.754 301.684 200.254C305.127 220.038 312.899 238.771 324.369 255.032C341.195 277.835 360.283 298.686 381.421 317.336L381.529 317.431C382.937 318.671 384.921 319.019 386.666 318.33V318.33C412.7 307.56 437.464 294.133 460.656 278.211C476.931 266.649 490.443 251.412 500.104 233.847C517.752 199.261 511.103 155.149 475.115 136.319Z" fill="#B2E0FF"/>
</g>
<g filter="url(#filter2_bi_1560_57)">
<path d="M87.9534 338.53C85.859 330.713 90.4976 322.679 98.3141 320.585L432.757 230.971C440.574 228.876 448.608 233.515 450.703 241.332L495.456 408.352C497.55 416.169 492.912 424.203 485.095 426.297L150.652 515.911C142.835 518.006 134.801 513.367 132.706 505.551L87.9534 338.53Z" fill="#5EB6F2"/>
</g>
<path fill-rule="evenodd" clip-rule="evenodd" d="M441.183 268.589L473.583 389.505C476.766 401.384 469.716 413.595 457.837 416.778L439.564 421.674L395.516 257.772L413.911 252.843C425.79 249.66 438 256.71 441.183 268.589ZM398.251 432.744L437.82 422.141L393.772 258.239L354.325 268.809L398.251 432.744ZM352.581 269.276L396.507 433.211L355.853 444.104L311.909 280.174L352.581 269.276ZM310.165 280.641L354.109 444.572L314.539 455.174L270.613 291.239L310.165 280.641ZM396.974 434.955L315.006 456.918L315.007 456.92L313.263 457.387L313.262 457.386L231.295 479.349L231.295 479.349L229.551 479.817L229.551 479.816L169.965 495.782C157.123 499.223 143.922 491.602 140.481 478.759L108.082 357.843C104.641 345.001 112.262 331.8 125.104 328.359L413.443 251.099C426.286 247.658 439.486 255.279 442.927 268.121L475.327 389.038C478.768 401.88 471.147 415.081 458.304 418.522L398.718 434.488L396.974 434.955ZM187.972 489.088L169.498 494.038C157.619 497.221 145.408 490.171 142.225 478.292L109.826 357.376C106.643 345.497 113.692 333.286 125.572 330.103L144.061 325.149L187.972 489.088ZM189.716 488.62L145.805 324.682L185.158 314.137L229.084 478.072L189.716 488.62ZM230.828 477.605L186.902 313.67L226.447 303.074L270.398 467.002L230.828 477.605ZM268.869 291.707L228.191 302.606L272.142 466.535L312.795 455.642L268.869 291.707Z" fill="#A6BFFF"/>
<g filter="url(#filter3_b_1560_57)">
<g filter="url(#filter4_bi_1560_57)">
<path d="M290.704 313.895C291.736 317.748 289.45 321.708 285.597 322.74L158.48 356.801C154.627 357.834 150.667 355.547 149.634 351.695V351.695C148.602 347.842 150.888 343.882 154.741 342.849L281.859 308.788C285.712 307.756 289.672 310.042 290.704 313.895V313.895Z" fill="white" fill-opacity="0.9"/>
</g>
</g>
<g filter="url(#filter5_b_1560_57)">
<g filter="url(#filter6_bi_1560_57)">
<path d="M381.891 319.366C382.923 323.219 380.637 327.179 376.784 328.211L165.924 384.711C162.072 385.743 158.112 383.457 157.079 379.604V379.604C156.047 375.751 158.333 371.791 162.186 370.759L373.045 314.259C376.898 313.227 380.858 315.513 381.891 319.366V319.366Z" fill="white" fill-opacity="0.9"/>
</g>
</g>
<g filter="url(#filter7_b_1560_57)">
<g filter="url(#filter8_bi_1560_57)">
<path d="M333.56 362.225C334.592 366.078 332.306 370.038 328.453 371.07L173.474 412.597C169.621 413.629 165.661 411.343 164.628 407.49V407.49C163.596 403.638 165.882 399.678 169.735 398.645L324.715 357.118C328.568 356.086 332.528 358.373 333.56 362.225V362.225Z" fill="white" fill-opacity="0.9"/>
</g>
</g>
<g filter="url(#filter9_b_1560_57)">
<g filter="url(#filter10_bi_1560_57)">
<path d="M229.422 420.036C230.454 423.888 228.168 427.849 224.315 428.881L180.944 440.502C177.092 441.534 173.132 439.248 172.099 435.395V435.395C171.067 431.543 173.353 427.582 177.206 426.55L220.577 414.929C224.429 413.897 228.389 416.183 229.422 420.036V420.036Z" fill="white" fill-opacity="0.9"/>
</g>
</g>
<g filter="url(#filter11_b_1560_57)">
<g filter="url(#filter12_bi_1560_57)">
<path d="M278.754 436.725C279.786 440.578 277.5 444.538 273.647 445.57L188.801 468.305C184.948 469.337 180.988 467.051 179.956 463.198V463.198C178.923 459.345 181.21 455.385 185.062 454.353L269.909 431.618C273.761 430.586 277.722 432.873 278.754 436.725V436.725Z" fill="white" fill-opacity="0.9"/>
</g>
</g>
<path d="M2.83145 365.281L73.2304 320.985L3.31904 236.777L159.986 287.14L122.129 223.363" stroke="white" stroke-width="1.80551" stroke-linejoin="bevel"/>
<path d="M59.2745 426.053L71.4321 353.211" stroke="white" stroke-width="1.80551"/>
<path d="M557.147 0.987342L579.263 97.265L701.05 51.831L583.258 207.792L669.589 190.306" stroke="white" stroke-width="2.14434" stroke-linejoin="bevel"/>
<path d="M466.91 40.4895L543.831 82.6328" stroke="white" stroke-width="2.14434"/>
<defs>
<filter id="filter0_bi_1560_57" x="223.55" y="92.3823" width="399.634" height="319.046" filterUnits="userSpaceOnUse" color-interpolation-filters="sRGB">
<feFlood flood-opacity="0" result="BackgroundImageFix"/>
<feGaussianBlur in="BackgroundImageFix" stdDeviation="0.976813"/>
<feComposite in2="SourceAlpha" operator="in" result="effect1_backgroundBlur_1560_57"/>
<feBlend mode="normal" in="SourceGraphic" in2="effect1_backgroundBlur_1560_57" result="shape"/>
<feColorMatrix in="SourceAlpha" type="matrix" values="0 0 0 0 0 0 0 0 0 0 0 0 0 0 0 0 0 0 127 0" result="hardAlpha"/>
<feOffset/>
<feGaussianBlur stdDeviation="2.44203"/>
<feComposite in2="hardAlpha" operator="arithmetic" k2="-1" k3="1"/>
<feColorMatrix type="matrix" values="0 0 0 0 1 0 0 0 0 1 0 0 0 0 1 0 0 0 0.8 0"/>
<feBlend mode="normal" in2="shape" result="effect2_innerShadow_1560_57"/>
</filter>
<filter id="filter1_bi_1560_57" x="298.867" y="113.615" width="212.576" height="207.019" filterUnits="userSpaceOnUse" color-interpolation-filters="sRGB">
<feFlood flood-opacity="0" result="BackgroundImageFix"/>
<feGaussianBlur in="BackgroundImageFix" stdDeviation="0.976813"/>
<feComposite in2="SourceAlpha" operator="in" result="effect1_backgroundBlur_1560_57"/>
<feBlend mode="normal" in="SourceGraphic" in2="effect1_backgroundBlur_1560_57" result="shape"/>
<feColorMatrix in="SourceAlpha" type="matrix" values="0 0 0 0 0 0 0 0 0 0 0 0 0 0 0 0 0 0 127 0" result="hardAlpha"/>
<feOffset/>
<feGaussianBlur stdDeviation="2.44203"/>
<feComposite in2="hardAlpha" operator="arithmetic" k2="-1" k3="1"/>
<feColorMatrix type="matrix" values="0 0 0 0 1 0 0 0 0 1 0 0 0 0 1 0 0 0 0.8 0"/>
<feBlend mode="normal" in2="shape" result="effect2_innerShadow_1560_57"/>
</filter>
<filter id="filter2_bi_1560_57" x="85.4971" y="228.515" width="412.415" height="289.853" filterUnits="userSpaceOnUse" color-interpolation-filters="sRGB">
<feFlood flood-opacity="0" result="BackgroundImageFix"/>
<feGaussianBlur in="BackgroundImageFix" stdDeviation="0.976813"/>
<feComposite in2="SourceAlpha" operator="in" result="effect1_backgroundBlur_1560_57"/>
<feBlend mode="normal" in="SourceGraphic" in2="effect1_backgroundBlur_1560_57" result="shape"/>
<feColorMatrix in="SourceAlpha" type="matrix" values="0 0 0 0 0 0 0 0 0 0 0 0 0 0 0 0 0 0 127 0" result="hardAlpha"/>
<feOffset/>
<feGaussianBlur stdDeviation="2.44203"/>
<feComposite in2="hardAlpha" operator="arithmetic" k2="-1" k3="1"/>
<feColorMatrix type="matrix" values="0 0 0 0 1 0 0 0 0 1 0 0 0 0 1 0 0 0 0.8 0"/>
<feBlend mode="normal" in2="shape" result="effect2_innerShadow_1560_57"/>
</filter>
<filter id="filter3_b_1560_57" x="142.165" y="301.319" width="156.009" height="62.9519" filterUnits="userSpaceOnUse" color-interpolation-filters="sRGB">
<feFlood flood-opacity="0" result="BackgroundImageFix"/>
<feGaussianBlur in="BackgroundImageFix" stdDeviation="3.61102"/>
<feComposite in2="SourceAlpha" operator="in" result="effect1_backgroundBlur_1560_57"/>
<feBlend mode="normal" in="SourceGraphic" in2="effect1_backgroundBlur_1560_57" result="shape"/>
</filter>
<filter id="filter4_bi_1560_57" x="145.776" y="304.93" width="148.787" height="55.7298" filterUnits="userSpaceOnUse" color-interpolation-filters="sRGB">
<feFlood flood-opacity="0" result="BackgroundImageFix"/>
<feGaussianBlur in="BackgroundImageFix" stdDeviation="1.80551"/>
<feComposite in2="SourceAlpha" operator="in" result="effect1_backgroundBlur_1560_57"/>
<feBlend mode="normal" in="SourceGraphic" in2="effect1_backgroundBlur_1560_57" result="shape"/>
<feColorMatrix in="SourceAlpha" type="matrix" values="0 0 0 0 0 0 0 0 0 0 0 0 0 0 0 0 0 0 127 0" result="hardAlpha"/>
<feOffset/>
<feGaussianBlur stdDeviation="2.40734"/>
<feComposite in2="hardAlpha" operator="arithmetic" k2="-1" k3="1"/>
<feColorMatrix type="matrix" values="0 0 0 0 1 0 0 0 0 1 0 0 0 0 1 0 0 0 0.8 0"/>
<feBlend mode="normal" in2="shape" result="effect2_innerShadow_1560_57"/>
</filter>
<filter id="filter5_b_1560_57" x="149.61" y="306.79" width="239.751" height="85.3913" filterUnits="userSpaceOnUse" color-interpolation-filters="sRGB">
<feFlood flood-opacity="0" result="BackgroundImageFix"/>
<feGaussianBlur in="BackgroundImageFix" stdDeviation="3.61102"/>
<feComposite in2="SourceAlpha" operator="in" result="effect1_backgroundBlur_1560_57"/>
<feBlend mode="normal" in="SourceGraphic" in2="effect1_backgroundBlur_1560_57" result="shape"/>
</filter>
<filter id="filter6_bi_1560_57" x="153.221" y="310.401" width="232.529" height="78.1693" filterUnits="userSpaceOnUse" color-interpolation-filters="sRGB">
<feFlood flood-opacity="0" result="BackgroundImageFix"/>
<feGaussianBlur in="BackgroundImageFix" stdDeviation="1.80551"/>
<feComposite in2="SourceAlpha" operator="in" result="effect1_backgroundBlur_1560_57"/>
<feBlend mode="normal" in="SourceGraphic" in2="effect1_backgroundBlur_1560_57" result="shape"/>
<feColorMatrix in="SourceAlpha" type="matrix" values="0 0 0 0 0 0 0 0 0 0 0 0 0 0 0 0 0 0 127 0" result="hardAlpha"/>
<feOffset/>
<feGaussianBlur stdDeviation="2.40734"/>
<feComposite in2="hardAlpha" operator="arithmetic" k2="-1" k3="1"/>
<feColorMatrix type="matrix" values="0 0 0 0 1 0 0 0 0 1 0 0 0 0 1 0 0 0 0.8 0"/>
<feBlend mode="normal" in2="shape" result="effect2_innerShadow_1560_57"/>
</filter>
<filter id="filter7_b_1560_57" x="157.158" y="349.649" width="183.872" height="70.4187" filterUnits="userSpaceOnUse" color-interpolation-filters="sRGB">
<feFlood flood-opacity="0" result="BackgroundImageFix"/>
<feGaussianBlur in="BackgroundImageFix" stdDeviation="3.61102"/>
<feComposite in2="SourceAlpha" operator="in" result="effect1_backgroundBlur_1560_57"/>
<feBlend mode="normal" in="SourceGraphic" in2="effect1_backgroundBlur_1560_57" result="shape"/>
</filter>
<filter id="filter8_bi_1560_57" x="160.769" y="353.26" width="176.65" height="63.1966" filterUnits="userSpaceOnUse" color-interpolation-filters="sRGB">
<feFlood flood-opacity="0" result="BackgroundImageFix"/>
<feGaussianBlur in="BackgroundImageFix" stdDeviation="1.80551"/>
<feComposite in2="SourceAlpha" operator="in" result="effect1_backgroundBlur_1560_57"/>
<feBlend mode="normal" in="SourceGraphic" in2="effect1_backgroundBlur_1560_57" result="shape"/>
<feColorMatrix in="SourceAlpha" type="matrix" values="0 0 0 0 0 0 0 0 0 0 0 0 0 0 0 0 0 0 127 0" result="hardAlpha"/>
<feOffset/>
<feGaussianBlur stdDeviation="2.40734"/>
<feComposite in2="hardAlpha" operator="arithmetic" k2="-1" k3="1"/>
<feColorMatrix type="matrix" values="0 0 0 0 1 0 0 0 0 1 0 0 0 0 1 0 0 0 0.8 0"/>
<feBlend mode="normal" in2="shape" result="effect2_innerShadow_1560_57"/>
</filter>
<filter id="filter9_b_1560_57" x="164.63" y="407.46" width="72.2624" height="40.5124" filterUnits="userSpaceOnUse" color-interpolation-filters="sRGB">
<feFlood flood-opacity="0" result="BackgroundImageFix"/>
<feGaussianBlur in="BackgroundImageFix" stdDeviation="3.61102"/>
<feComposite in2="SourceAlpha" operator="in" result="effect1_backgroundBlur_1560_57"/>
<feBlend mode="normal" in="SourceGraphic" in2="effect1_backgroundBlur_1560_57" result="shape"/>
</filter>
<filter id="filter10_bi_1560_57" x="168.241" y="411.071" width="65.0404" height="33.2904" filterUnits="userSpaceOnUse" color-interpolation-filters="sRGB">
<feFlood flood-opacity="0" result="BackgroundImageFix"/>
<feGaussianBlur in="BackgroundImageFix" stdDeviation="1.80551"/>
<feComposite in2="SourceAlpha" operator="in" result="effect1_backgroundBlur_1560_57"/>
<feBlend mode="normal" in="SourceGraphic" in2="effect1_backgroundBlur_1560_57" result="shape"/>
<feColorMatrix in="SourceAlpha" type="matrix" values="0 0 0 0 0 0 0 0 0 0 0 0 0 0 0 0 0 0 127 0" result="hardAlpha"/>
<feOffset/>
<feGaussianBlur stdDeviation="2.40734"/>
<feComposite in2="hardAlpha" operator="arithmetic" k2="-1" k3="1"/>
<feColorMatrix type="matrix" values="0 0 0 0 1 0 0 0 0 1 0 0 0 0 1 0 0 0 0.8 0"/>
<feBlend mode="normal" in2="shape" result="effect2_innerShadow_1560_57"/>
</filter>
<filter id="filter11_b_1560_57" x="172.485" y="424.149" width="113.738" height="51.6257" filterUnits="userSpaceOnUse" color-interpolation-filters="sRGB">
<feFlood flood-opacity="0" result="BackgroundImageFix"/>
<feGaussianBlur in="BackgroundImageFix" stdDeviation="3.61102"/>
<feComposite in2="SourceAlpha" operator="in" result="effect1_backgroundBlur_1560_57"/>
<feBlend mode="normal" in="SourceGraphic" in2="effect1_backgroundBlur_1560_57" result="shape"/>
</filter>
<filter id="filter12_bi_1560_57" x="176.097" y="427.76" width="106.516" height="44.4037" filterUnits="userSpaceOnUse" color-interpolation-filters="sRGB">
<feFlood flood-opacity="0" result="BackgroundImageFix"/>
<feGaussianBlur in="BackgroundImageFix" stdDeviation="1.80551"/>
<feComposite in2="SourceAlpha" operator="in" result="effect1_backgroundBlur_1560_57"/>
<feBlend mode="normal" in="SourceGraphic" in2="effect1_backgroundBlur_1560_57" result="shape"/>
<feColorMatrix in="SourceAlpha" type="matrix" values="0 0 0 0 0 0 0 0 0 0 0 0 0 0 0 0 0 0 127 0" result="hardAlpha"/>
<feOffset/>
<feGaussianBlur stdDeviation="2.40734"/>
<feComposite in2="hardAlpha" operator="arithmetic" k2="-1" k3="1"/>
<feColorMatrix type="matrix" values="0 0 0 0 1 0 0 0 0 1 0 0 0 0 1 0 0 0 0.8 0"/>
<feBlend mode="normal" in2="shape" result="effect2_innerShadow_1560_57"/>
</filter>
</defs>
</svg>
