<svg width="42" height="23" viewBox="0 0 42 23" fill="none" xmlns="http://www.w3.org/2000/svg">
<path d="M2.23999 10.0246C1.44779 10.0246 0.805581 10.6668 0.805581 11.459C0.805581 12.2512 1.44779 12.8934 2.23999 12.8934V10.0246ZM41.5052 12.4733C42.0654 11.9131 42.0654 11.0049 41.5052 10.4447L32.3767 1.31618C31.8165 0.756005 30.9083 0.756005 30.3481 1.31618C29.7879 1.87635 29.7879 2.78457 30.3481 3.34474L38.4624 11.459L30.3481 19.5732C29.7879 20.1334 29.7879 21.0416 30.3481 21.6018C30.9083 22.162 31.8165 22.162 32.3767 21.6018L41.5052 12.4733ZM2.23999 12.8934H40.4909V10.0246H2.23999V12.8934Z" fill="white"/>
</svg>
