<svg width="42" height="22" viewBox="0 0 42 22" fill="none" xmlns="http://www.w3.org/2000/svg">
<path d="M40.1619 9.54411C40.9541 9.54411 41.5963 10.1863 41.5963 10.9785C41.5963 11.7707 40.9541 12.4129 40.1619 12.4129V9.54411ZM0.896661 11.9928C0.33649 11.4326 0.33649 10.5244 0.896661 9.96423L10.0252 0.835708C10.5854 0.275536 11.4936 0.275536 12.0537 0.835708C12.6139 1.39588 12.6139 2.3041 12.0537 2.86427L3.9395 10.9785L12.0537 19.0928C12.6139 19.6529 12.6139 20.5612 12.0537 21.1213C11.4936 21.6815 10.5854 21.6815 10.0252 21.1213L0.896661 11.9928ZM40.1619 12.4129H1.91094V9.54411H40.1619V12.4129Z" fill="white"/>
</svg>
